<?xml version="1.0" standalone="no"?>
<!DOCTYPE svg PUBLIC "-//W3C//DTD SVG 1.1//EN" "http://www.w3.org/Graphics/SVG/1.1/DTD/svg11.dtd" >
<svg xmlns="http://www.w3.org/2000/svg" xmlns:xlink="http://www.w3.org/1999/xlink" version="1.1">
<metadata></metadata>
<defs>
<font id="marionbold" horiz-adv-x="1708" >
<font-face units-per-em="2048" ascent="1575" descent="-473" />
<missing-glyph horiz-adv-x="696" />
<glyph horiz-adv-x="0" />
<glyph unicode="&#xd;" horiz-adv-x="0" />
<glyph unicode=" "  horiz-adv-x="696" />
<glyph unicode="&#x09;" horiz-adv-x="696" />
<glyph unicode="&#xa0;" horiz-adv-x="696" />
<glyph unicode="!" horiz-adv-x="729" d="M156 1292q0 86 55 126t129 40q70 0 126 -41t56 -125q0 -33 -5 -64.5t-14 -74.5t-23.5 -102.5t-31 -146.5t-35 -208t-38.5 -284h-88q-16 170 -32.5 292.5t-31 209.5t-27 145.5t-21.5 99.5t-14 72t-5 61zM172 119q0 151 160 151q150 0 149 -151q0 -150 -149 -150 q-160 0 -160 150z" />
<glyph unicode="&#x22;" horiz-adv-x="694" d="M72 1372q0 86 110 86q102 0 103 -86q0 -119 -74 -471h-72q-68 356 -67 471zM410 1372q0 86 110 86q102 0 103 -86q0 -61 -18.5 -179t-57.5 -292h-72q-33 180 -49 297t-16 174z" />
<glyph unicode="#" horiz-adv-x="1212" d="M72 442l20 140h242q10 63 19 118.5t22 118.5h-230q10 61 16.5 96t10.5 46h234q25 111 48 221t48 221h151l-92 -442h223q23 111 47.5 221t47.5 221h151l-90 -442h201l-21 -142h-217q-12 -63 -21.5 -118.5t-21.5 -118.5h207l-20 -140h-216q-25 -111 -50 -223.5t-48 -218.5 h-147l94 442h-225q-23 -111 -45.5 -223.5t-44.5 -218.5h-158l98 442h-233zM481 582h230q10 63 21 117.5t24 119.5h-224z" />
<glyph unicode="$" horiz-adv-x="1048" d="M72 281q0 182 104 182q84 0 84 -96q0 -47 -10 -74t-10 -51q0 -27 15 -53.5t45 -48t72 -37t95 -19.5v561q-68 33 -135.5 63.5t-120.5 70.5t-87 94.5t-34 136.5q0 346 377 366v158q0 37 45 37q53 0 53 -37v-158q348 -18 348 -276q0 -127 -96 -127q-92 0 -92 86q0 20 8 38.5 t8 41.5q0 121 -176 139v-461q12 -8 23.5 -12t17.5 -8q68 -29 134.5 -62t118.5 -77t85 -104t33 -146q0 -440 -412 -447v-172q0 -39 -45 -39q-53 0 -53 39v174q-205 12 -300 91t-95 227zM281 1083q0 -82 44 -131t142 -90v416q-104 -10 -145 -58.5t-41 -136.5zM565 84 q117 10 168 72.5t51 179.5q0 55 -14 95t-42 69.5t-69 53.5t-94 48v-518z" />
<glyph unicode="%" horiz-adv-x="1636" d="M72 1010q-1 385 409 385q281 0 281 -336q0 -393 -385 -393q-305 0 -305 344zM254 954q0 -203 137 -202q246 0 246 307q-1 258 -148 258q-236 0 -235 -363zM340 0l811 1425h145l-819 -1425h-137zM877 328q-1 383 407 383q281 0 281 -336q0 -391 -385 -391q-303 0 -303 344 zM1057 272q0 -205 139 -204q244 0 244 307q-1 260 -148 260q-236 0 -235 -363z" />
<glyph unicode="&#x26;" horiz-adv-x="1718" d="M72 375q0 141 91 260t265 211q-18 33 -40.5 66.5t-43 67.5t-34 65.5t-13.5 62.5q0 84 37 146.5t98.5 104.5t140 62.5t162.5 20.5q168 0 272.5 -69.5t104.5 -209.5q0 -51 -28.5 -100t-73.5 -93t-101.5 -84t-113.5 -73q72 -104 154.5 -208.5t176.5 -221.5q139 152 140 274 q0 137 -185 138v92h527v-92q-59 -2 -97 -24.5t-66 -59.5t-48.5 -85t-46 -101.5t-60.5 -110t-88 -107.5q20 -18 50 -44.5t63 -52.5t65.5 -43t61.5 -17q31 0 63.5 14t61 35.5t49 46t26.5 43.5l80 -35q-8 -49 -33.5 -99.5t-66.5 -90t-100.5 -64.5t-135.5 -25q-49 0 -103 9.5 t-108.5 30t-103.5 50t-86 70.5q-82 -76 -182.5 -118t-210.5 -42q-242 0 -381 98.5t-139 301.5zM367 414q0 -55 15 -105.5t51 -89.5t94.5 -62.5t146.5 -23.5q59 0 120.5 15.5t127.5 72.5q-135 147 -245 276.5t-202 270.5q-37 -23 -58.5 -50.5t-32.5 -67.5t-14 -97t-3 -139z M637 1171q0 -45 14 -115.5t86 -162.5q41 39 64.5 76t36 69.5t15.5 62t3 54.5q0 98 -20.5 146.5t-100.5 48.5q-59 0 -78.5 -43t-19.5 -136z" />
<glyph unicode="'" horiz-adv-x="358" d="M72 1372q0 86 112 86q102 0 103 -86q0 -57 -19.5 -174t-56.5 -297h-72q-33 180 -50 297t-17 174z" />
<glyph unicode="(" horiz-adv-x="626" d="M72 567q0 283 113.5 511.5t342.5 420.5l25 -74q-78 -78 -126 -171t-74.5 -201.5t-36 -230.5t-9.5 -255q0 -113 9.5 -221t36 -212.5t74.5 -204t126 -195.5l-25 -78q-229 236 -342.5 459t-113.5 452z" />
<glyph unicode=")" horiz-adv-x="626" d="M72 -272q78 76 126 168t75.5 199.5t36.5 230.5t9 260q0 111 -9 219t-35.5 212.5t-75.5 206t-127 197.5l28 72q229 -236 341 -460t112 -447q0 -283 -114.5 -509.5t-338.5 -424.5z" />
<glyph unicode="*" horiz-adv-x="978" d="M72 981q0 45 39 70.5t116 25.5q45 0 75 -5t65 -5q31 0 30 10q0 16 -40 33.5t-89 41.5t-89 52.5t-40 67.5q0 35 23.5 57.5t58.5 22.5t71 -33t66.5 -73t54 -72.5t36.5 -32.5q2 0 2 14q0 55 -20.5 111.5t-20.5 122.5q0 47 23.5 70.5t58.5 23.5q29 0 56 -23.5t27 -70.5 q0 -31 -7 -61t-16 -59.5t-16.5 -58t-7.5 -59.5q0 -10 2 -10q16 0 42 32.5t56.5 72.5t64.5 73t67 33q35 0 58.5 -23.5t23.5 -58.5t-41 -65.5t-89 -55.5t-89 -43.5t-41 -28.5q0 -4 21.5 -5t47.5 -1q45 0 69.5 1t41.5 1q143 0 143 -94q0 -33 -21.5 -57.5t-62.5 -24.5 q-31 0 -65.5 15.5t-69.5 35t-66.5 34.5t-56.5 15q0 -20 24.5 -51t53.5 -64.5t53.5 -68.5t24.5 -65q0 -37 -24.5 -59.5t-55.5 -22.5q-49 0 -73.5 46t-38 102t-20.5 102.5t-18 46.5q-12 0 -20 -46.5t-21.5 -102.5t-38 -102t-69.5 -46q-35 0 -58.5 22.5t-23.5 61.5 q0 31 24.5 68.5t54.5 74.5t54.5 64.5t24.5 37.5q0 2 -6 2q-20 0 -51 -15t-66 -33.5t-70 -34t-65 -15.5q-41 0 -63.5 23.5t-22.5 58.5z" />
<glyph unicode="+" horiz-adv-x="1191" d="M102 639v164h402v409h172v-409h403v-164h-403v-393h-172v393h-402z" />
<glyph unicode="," horiz-adv-x="571" d="M109 -272q70 45 108.5 81.5t57 66.5t21.5 52.5t3 40.5q0 39 -35 39q-135 0 -135 119q0 152 143 152q182 0 183 -218q0 -135 -77 -230t-224 -173z" />
<glyph unicode="-" horiz-adv-x="669" d="M72 475v156h526v-156h-526z" />
<glyph unicode="." horiz-adv-x="530" d="M111 119q-1 151 159 151q150 0 150 -151q0 -150 -150 -150q-160 0 -159 150z" />
<glyph unicode="/" horiz-adv-x="854" d="M29 -113l606 1571h170l-606 -1571h-170z" />
<glyph unicode="0" horiz-adv-x="1204" d="M72 684q0 203 43 350.5t116.5 243.5t172.5 143t210 47q102 0 195.5 -42t165.5 -131t113.5 -225t41.5 -327q0 -195 -43 -340t-116.5 -241t-174 -144.5t-214.5 -48.5q-109 0 -202 49.5t-161.5 142.5t-107.5 225t-39 298zM410 770q0 -158 6 -284t27.5 -214t62.5 -136 t108 -48q68 0 105 48t54.5 128t20.5 183.5t3 214.5q0 63 -1 139t-8.5 151.5t-21.5 147t-41 127t-67 88.5t-99 33q-53 0 -83 -56.5t-45 -141.5t-18 -186.5t-3 -193.5z" />
<glyph unicode="1" horiz-adv-x="987" d="M72 1214v89q82 12 148.5 24t121.5 31.5t105.5 47.5t101.5 71l135 -21q-18 -92 -18 -149v-1092q0 -123 249 -123v-92h-835v92q250 0 250 123v924q0 76 -66 75h-192z" />
<glyph unicode="2" horiz-adv-x="1130" d="M72 68q281 281 437.5 524.5t156.5 476.5q0 59 -7.5 107.5t-29 82t-58 51t-98.5 17.5q-111 0 -168 -47t-61 -113q74 -29 73 -90q0 -117 -102 -116q-100 0 -100 149q0 166 107.5 262t330.5 96q98 0 181 -25.5t144.5 -74.5t95.5 -120.5t34 -164.5q0 -145 -63.5 -269 t-162 -232.5t-218.5 -203.5t-234 -181h336q53 0 91 6t65.5 25.5t49 54t41.5 92.5l146 -13l-86 -362h-727q-41 0 -82 -2t-82 -8z" />
<glyph unicode="3" horiz-adv-x="1062" d="M51 193q0 117 119 116q88 0 88 -84q0 -63 -39 -82q16 -53 123 -53q88 0 143.5 21.5t87 62.5t44 103.5t12.5 146.5q0 141 -35 213t-123 72h-106q-37 0 -37 47q0 55 37 55q72 0 115.5 19.5t68 57.5t33 92t8.5 124q0 111 -34 173t-112 62q-74 0 -116.5 -25.5t-44.5 -60.5 q16 -14 27.5 -34.5t11.5 -42.5q0 -104 -101 -105q-96 0 -96 100q0 141 97 219t296 78q86 0 159 -20.5t126 -62.5t84 -105t31 -152q0 -74 -20.5 -125t-59.5 -87.5t-92.5 -60.5t-118.5 -40q168 -27 266 -120t98 -265q0 -115 -43 -202t-120.5 -144t-187.5 -86t-243 -29 q-346 0 -346 224z" />
<glyph unicode="4" horiz-adv-x="1185" d="M45 420v98l743 959l158 -13q-12 -47 -19 -92t-7 -88v-674q0 -29 16 -28h82q29 0 56.5 6t60.5 16v-184h-199q-16 0 -16 -29v-225q0 -74 94 -74v-92h-527v92q104 0 105 74v225q0 29 -29 29h-518zM215 582h348q29 0 29 28v434z" />
<glyph unicode="5" horiz-adv-x="1071" d="M57 158q0 94 80 94q78 0 78 -78q0 -31 -27 -57q47 -41 172 -41q88 0 143.5 24.5t87.5 73.5t44 121t12 164q0 84 -8 148.5t-31.5 108.5t-67.5 66.5t-114 22.5q-139 0 -211 -109l-94 41l121 725q184 -25 336 -24q53 0 107 4t103.5 13t88 22.5t61.5 31.5h51 q-27 -70 -74 -122t-105 -85.5t-125 -51t-134 -17.5q-111 0 -205 18l-63 -350q23 12 47 20.5t57 13.5t76 7t100 2q84 0 163 -20.5t139.5 -74.5t97 -148.5t36.5 -241.5q0 -121 -42 -212t-115.5 -152.5t-172 -93.5t-208.5 -32q-219 0 -311.5 46t-92.5 143z" />
<glyph unicode="6" horiz-adv-x="1198" d="M72 553q0 205 55 371t150.5 282.5t224.5 180t276 63.5q197 0 197 -150q0 -96 -90 -96q-74 0 -74 68q0 29 8 43q-45 10 -69 10q-53 0 -108.5 -31.5t-101.5 -103.5t-77 -185.5t-37 -277.5q51 66 129 96.5t164 30.5q74 0 146.5 -23.5t130 -70.5t93 -118t35.5 -163 q0 -145 -36.5 -242.5t-103 -157t-159 -85t-202.5 -25.5q-289 0 -420 145.5t-131 438.5zM426 416q0 -61 6 -122t26.5 -107t59.5 -74.5t105 -28.5q55 0 88.5 24.5t50 67.5t21.5 100.5t5 122.5q0 168 -37.5 247t-152.5 79q-59 0 -93 -19.5t-51.5 -58.5t-22.5 -97t-5 -134z" />
<glyph unicode="7" horiz-adv-x="913" d="M45 1024l53 430q53 -8 104.5 -9t116.5 -1h594v-107q-39 -63 -75.5 -149t-70.5 -178t-62.5 -181.5t-49.5 -158.5q-41 -135 -67.5 -275.5t-26.5 -275.5q0 -76 -43 -113t-110 -37q-68 0 -122.5 33t-54.5 100q0 59 19.5 139.5t49.5 164t64.5 164.5t63.5 143q43 90 95 170 t96.5 141t75 102t30.5 54q0 8 -6 8h-424q-76 0 -133 -199z" />
<glyph unicode="8" horiz-adv-x="1208" d="M72 358q0 135 83 224.5t236 130.5q-117 45 -192.5 129t-75.5 223q0 117 39 191.5t106.5 117.5t158.5 59.5t194 16.5q70 0 150.5 -17.5t148 -56.5t112.5 -101.5t45 -152.5q0 -70 -25.5 -124t-65.5 -94t-91 -64.5t-102 -34.5q70 -23 132 -53.5t109 -76.5t74 -112.5 t27 -161.5q0 -117 -46.5 -198.5t-121 -134t-172 -76t-199.5 -23.5q-92 0 -186.5 17.5t-169 62.5t-121.5 120t-47 189zM371 350q0 -129 59 -209t182 -80q111 0 167.5 70t56.5 186q0 68 -26 118t-69 89t-98.5 69.5t-112.5 59.5q-53 -12 -83.5 -41.5t-48 -69.5t-22.5 -90.5 t-5 -101.5zM432 1139q0 -129 71.5 -196.5t182.5 -90.5q68 37 84 106.5t16 149.5q0 111 -37.5 170t-144.5 59q-98 0 -135 -49t-37 -149z" />
<glyph unicode="9" horiz-adv-x="1208" d="M72 946q0 139 39 235.5t108.5 156t162.5 86t204 26.5q123 0 223 -37t173 -111.5t113 -186t40 -261.5q0 -203 -50.5 -366.5t-141.5 -279.5t-217 -177.5t-280 -61.5q-211 0 -210 158q0 90 90 90q74 0 73 -65q0 -29 -16 -58q57 -10 74 -10q61 0 119.5 33t103.5 100.5 t73.5 171t30.5 244.5q-53 -66 -128.5 -98.5t-161.5 -32.5q-68 0 -143 25.5t-136 80t-102 138t-41 200.5zM422 995q0 -88 6 -153.5t25.5 -109.5t56.5 -66.5t100 -22.5q55 0 90 21.5t53.5 63.5t24.5 105.5t6 147.5q0 94 -6 162.5t-27.5 111.5t-60 63.5t-104.5 20.5 q-55 0 -88 -20.5t-50.5 -62.5t-21.5 -107.5t-4 -153.5z" />
<glyph unicode=":" horiz-adv-x="534" d="M109 119q-1 151 159 151q150 0 150 -151q0 -150 -150 -150q-160 0 -159 150zM109 745q0 150 159 150q150 0 150 -150t-150 -149q-160 0 -159 149z" />
<glyph unicode=";" horiz-adv-x="544" d="M96 -272q70 45 109 81.5t57.5 66.5t21.5 52.5t3 40.5q0 39 -37 39q-133 0 -133 119q0 152 141 152q184 0 184 -218q0 -135 -76.5 -230t-224.5 -173zM111 745q0 150 157 150q150 0 150 -150t-150 -149q-158 0 -157 149z" />
<glyph unicode="&#x3c;" horiz-adv-x="894" d="M72 674v90l751 352v-149l-536 -248l536 -246v-151z" />
<glyph unicode="=" horiz-adv-x="1095" d="M96 483v158h903v-158h-903zM96 805v158h903v-158h-903z" />
<glyph unicode="&#x3e;" horiz-adv-x="894" d="M72 328v149l536 244l-536 250v151l751 -352v-90z" />
<glyph unicode="?" horiz-adv-x="870" d="M88 1229q0 111 88 166t248 55q76 0 144.5 -12.5t119.5 -46t81 -97t30 -164.5q0 -86 -29 -148t-72 -111.5t-93 -88.5t-93 -78.5t-71.5 -85t-28.5 -106.5v-100h-78q-29 70 -29 155q0 63 15.5 112.5t38 91.5t50 80t50 79t38 89t15.5 111q0 41 -3 75t-17.5 57.5t-44 36 t-80.5 12.5q-27 0 -59 -11.5t-42 -35.5q16 -10 17 -54q0 -47 -28 -74.5t-81 -27.5q-86 0 -86 121zM215 119q0 151 160 151q150 0 149 -151q0 -150 -149 -150q-160 0 -160 150z" />
<glyph unicode="@" horiz-adv-x="1552" d="M72 696q0 373 191.5 551t567.5 178q649 0 650 -575q0 -553 -441 -553q-139 0 -145 135q-98 -127 -223 -127q-68 0 -118 24.5t-83 67.5t-48 99.5t-15 117.5q0 80 26.5 163t76.5 150.5t123 110.5t167 43q78 0 113.5 -25.5t58.5 -82.5q8 23 15 42t11 40h183l-160 -547 q10 -127 59 -127q131 0 182.5 124t51.5 345t-108.5 332.5t-366.5 111.5q-152 0 -261.5 -45t-180 -125t-105.5 -189.5t-35 -238.5q0 -137 39 -247.5t112.5 -188.5t180 -120t241.5 -42q252 0 486 185l65 -76q-219 -231 -573 -232q-367 0 -552 176.5t-185 544.5zM633 571 q0 -74 16.5 -124t52.5 -50q41 0 82 44t70 149l66 264q0 68 -26 100.5t-93 32.5q-37 0 -69 -41t-53.5 -102.5t-33.5 -135t-12 -137.5z" />
<glyph unicode="A" horiz-adv-x="1515" d="M-23 0v100q123 10 181 148l516 1231l203 -27l507 -1278q10 -25 30 -40t44.5 -24.5t50 -13.5t50.5 -6v-90h-736v90q31 4 64 8t60.5 10.5t45 12.5t17.5 16t-5.5 24.5t-11.5 33.5l-96 264q-10 23 -43 34t-74 11h-317q-70 0 -84 -45l-72 -221q-8 -14 -8 -54q0 -84 186 -84 v-100h-508zM520 623h268q51 0 52 10q-4 6 -11.5 34.5t-29.5 82.5l-150 372l-174 -415q-22 -53 -22 -65q0 -19 67 -19z" />
<glyph unicode="B" horiz-adv-x="1593" d="M104 1350v94h752q274 0 409.5 -78t135.5 -270q0 -135 -81 -209t-230 -111q94 -16 168.5 -41.5t126 -71t78 -111t26.5 -161.5q0 -123 -47 -199.5t-127 -121.5t-185.5 -61.5t-220.5 -16.5q-186 0 -377.5 3t-418.5 5v92q203 0 202 107v1015q0 135 -211 136zM676 170 q0 -35 39 -52.5t133 -17.5q141 0 207.5 66.5t66.5 228.5q0 96 -22.5 155.5t-71.5 92.5t-125 44t-180 11q-47 0 -47 -67v-461zM676 856q0 -47 47 -47q104 0 168.5 14.5t99.5 46t46.5 81.5t11.5 122q0 66 -9.5 115t-33 80.5t-65.5 48t-107 16.5q-86 0 -122 -16.5t-36 -48.5 v-412z" />
<glyph unicode="C" horiz-adv-x="1472" d="M104 696q0 168 35 310.5t112 245t198.5 159.5t293.5 57q51 0 107.5 -6t112 -20.5t104.5 -38t84 -55.5q53 84 154 114q79 -186 79 -510v-8h-153q-53 221 -147.5 317.5t-256.5 96.5q-111 0 -180 -49t-109 -129t-55.5 -183.5t-15.5 -210.5q0 -145 17.5 -272t62.5 -220 t124 -147.5t201 -54.5q158 0 263.5 87t183.5 286l92 -35q-31 -104 -86 -190t-131 -146.5t-169 -93.5t-200 -33q-199 0 -336 55.5t-223 153.5t-124 231.5t-38 288.5z" />
<glyph unicode="D" horiz-adv-x="1730" d="M104 1352v94q53 -6 102.5 -8t98.5 -2q68 0 124 2t120.5 5t151.5 6t217 3q170 0 302 -40t222 -128t137 -227t47 -336q0 -186 -40 -322.5t-130 -224.5t-234.5 -131t-353.5 -43h-757v92q63 0 103 6t61.5 25.5t29.5 55.5t8 95v887q0 74 -10 108t-34.5 47t-64.5 17t-100 19z M674 258q0 -51 9 -81t29.5 -44t55.5 -18t84 -4q211 0 316.5 147.5t105.5 462.5q0 311 -104.5 461.5t-352.5 150.5q-45 0 -72.5 -3t-43 -15t-21.5 -36t-6 -62v-959z" />
<glyph unicode="E" horiz-adv-x="1511" d="M104 1350v94h1252l16 -426l-133 -12q-20 119 -56 184t-88.5 95t-120 35t-151.5 5q-150 0 -149 -82v-383q0 -25 10 -38t39 -13q51 0 95 6t78 28.5t55.5 67.5t29.5 125h125v-579h-125q-8 76 -23.5 121t-43 69.5t-68.5 32.5t-98 10q-74 -6 -74 -57v-408q0 -106 164 -106 q131 0 211.5 20.5t130 63.5t80 109.5t63.5 156.5l123 -18l-60 -451h-1265v92q195 0 194 125v969q0 164 -211 164z" />
<glyph unicode="F" horiz-adv-x="1380" d="M104 1350v94h1225l37 -418l-143 -12q-20 106 -56.5 168.5t-89.5 94.5t-126.5 40t-168.5 8q-117 0 -116 -74v-374q0 -68 108 -68q55 0 88 10t53.5 35t31.5 67t24 107h119v-571h-121v55q0 27 -6.5 58.5t-31 58t-71.5 44t-129 17.5q-41 0 -53 -13t-12 -36v-391 q0 -158 221 -158v-92h-766v92q186 0 186 158v928q0 172 -203 172z" />
<glyph unicode="G" horiz-adv-x="1579" d="M104 696q0 168 39 310.5t119 245t205 159.5t297 57q51 0 107.5 -6t111.5 -20.5t104.5 -38t83.5 -55.5q53 84 154 114q80 -188 80 -518h-154q-53 221 -147 317.5t-256 96.5q-111 0 -180.5 -49t-109.5 -129t-55.5 -183.5t-15.5 -210.5q0 -98 7.5 -220t40 -229.5t102.5 -180 t194 -72.5q135 0 201 65.5t66 221.5q0 207 -219 207v92h700v-92q-188 0 -188 -148v-455h-78q-41 18 -81 48t-69 65q-76 -57 -175 -89t-204 -32q-324 0 -502 182.5t-178 546.5z" />
<glyph unicode="H" horiz-adv-x="1894" d="M104 0v92q219 0 220 133v953q0 172 -220 172v94h775v-94q-197 0 -197 -172v-357q53 -20 141 -20h262q106 0 150 18v359q0 172 -213 172v94h768v-94q-197 0 -197 -172v-953q0 -133 197 -133v-92h-768v92q213 0 213 133v441q-23 10 -59.5 17t-90.5 7h-262q-80 0 -141 -24 v-441q0 -133 197 -133v-92h-775z" />
<glyph unicode="I" horiz-adv-x="983" d="M104 1350v94h766v-94q-195 0 -194 -172v-953q0 -133 205 -133v-92h-768v92q203 0 202 133v953q0 172 -211 172z" />
<glyph unicode="J" horiz-adv-x="1093" d="M16 242q0 63 37 111t101 48q110 0 110 -100q0 -106 -69 -106q-8 0 -16.5 1t-18.5 3q16 -41 60 -64.5t104 -23.5q61 0 96 42t52 105.5t21.5 137t4.5 139.5v634q0 180 -219 181v94h757v-94q-180 0 -180 -172v-668q0 -111 -32.5 -209t-93 -170t-147.5 -114t-198 -42 q-59 0 -123.5 19.5t-119 54.5t-90.5 84t-36 109z" />
<glyph unicode="K" horiz-adv-x="1744" d="M104 1350v94h758v-94q-186 0 -186 -142v-487l471 450q47 45 63.5 70t16.5 66q0 43 -148 43v94h600v-92q-59 -6 -100 -17.5t-80 -34t-82 -60.5t-106 -97l-244 -234l467 -676q46 -67 102 -105q54 -37 150 -36h10v-92h-752v92q123 0 123 21q0 14 -10 41.5t-41 74.5l-295 443 l-84 -78q-25 -23 -40 -47.5t-21 -59.5v-262q0 -66 43 -99.5t149 -33.5v-92h-747v92q195 0 194 133v983q0 141 -211 142z" />
<glyph unicode="L" horiz-adv-x="1392" d="M104 1350v94h766v-94q-197 0 -196 -150v-1007q0 -74 125 -74h39q94 0 161.5 6t118.5 40t91 106.5t81 205.5l125 -12l-69 -465h-1217v92q186 0 186 101v1007q0 150 -211 150z" />
<glyph unicode="M" horiz-adv-x="2117" d="M63 0v92q98 0 150.5 46t54.5 145l17 952q0 25 -4.5 46.5t-26 36.5t-64.5 23.5t-118 8.5v94h583l422 -1055l404 1055h516v-94q-66 0 -106 -10.5t-61.5 -26t-28.5 -37t-7 -41.5l25 -985q4 -158 194 -158v-92h-690v92q188 0 188 144l-16 911l-432 -1147h-197l-465 1139 l-8 -873q-2 -174 213 -174v-92h-543z" />
<glyph unicode="N" horiz-adv-x="1615" d="M43 1350v94h412l817 -875v559q0 221 -219 222v94h540v-94q-199 0 -198 -222v-1134l-74 -21l-926 975v-616q0 -240 221 -240v-92h-542v92q182 0 182 240v944q0 74 -213 74z" />
<glyph unicode="O" d="M90 713q0 197 57.5 340t158 235t238.5 136t300 44q158 0 298 -46t244.5 -139t166 -231.5t61.5 -322.5t-58.5 -326.5t-162 -238.5t-243.5 -146.5t-306 -50.5q-156 0 -293 42t-239.5 133t-162 232.5t-59.5 338.5zM465 729q0 -139 17.5 -258t61.5 -207t120.5 -138t195.5 -50 q115 0 188.5 49t116.5 135t59.5 203t16.5 250q0 125 -16.5 242.5t-61.5 208.5t-126 146.5t-210 55.5q-119 0 -190.5 -52t-109.5 -140.5t-50 -204t-12 -240.5z" />
<glyph unicode="P" horiz-adv-x="1497" d="M104 1350v94h492q43 0 76 1t63.5 3t61 3t65.5 1q289 0 422 -106.5t133 -323.5q0 -84 -29.5 -157.5t-97 -128t-175 -86.5t-261.5 -32q-66 0 -107.5 4.5t-80.5 14.5v-395q0 -150 213 -150v-92h-766v92q195 0 194 141v1002q0 115 -203 115zM666 748q41 -10 85 -15.5 t103 -5.5q68 0 105.5 25.5t56 67.5t23.5 96.5t5 113.5q0 80 -13 139.5t-47 99.5t-92 60.5t-149 20.5q-78 0 -77 -99v-503z" />
<glyph unicode="Q" d="M104 713q0 197 57.5 340t158 235t238.5 136t300 44q158 0 298 -46t244.5 -139t166 -231.5t61.5 -322.5q0 -137 -32.5 -250.5t-93 -203t-144.5 -154t-187 -101.5q20 -45 51 -84.5t65 -69.5t70 -47.5t68 -17.5q84 0 123 88h86q-25 -84 -62.5 -133t-79.5 -74.5t-85 -32.5 t-78 -7q-119 0 -221 73.5t-188 253.5q-164 0 -311.5 38t-260 126t-178.5 230.5t-66 349.5zM479 729q0 -139 17.5 -258t61.5 -207t121 -138t195 -50q115 0 189 49t117 135t59 203t16 250q0 125 -16 242.5t-61 208.5t-126 146.5t-210 55.5q-119 0 -190.5 -52t-109.5 -140.5 t-50.5 -204t-12.5 -240.5z" />
<glyph unicode="R" horiz-adv-x="1636" d="M104 1350v94h342q72 0 123.5 2t105.5 3t123.5 3t180.5 2q115 0 194.5 -28.5t131 -78t74 -117t22.5 -143.5q0 -147 -113.5 -241t-306.5 -117q80 -10 135 -25.5t95 -40t67 -60.5t49 -85q31 -70 48.5 -138.5t34.5 -122.5t41 -88t67 -34q49 0 75 101l72 -23q0 -29 -20.5 -70 t-57.5 -77.5t-90 -63.5t-121 -27q-135 0 -197.5 41t-84.5 107q-45 129 -79 233.5t-73 178t-89 114.5t-126 41q-43 0 -51 -14v-459q0 -125 194 -125v-92h-749v92q186 0 186 125v1010q0 123 -203 123zM676 823q10 -23 35 -22h53q57 0 105.5 7t82 34.5t52 82t18.5 148.5 q0 76 -18.5 127t-50 80t-75.5 41t-94 12h-43q-66 0 -65 -106v-404z" />
<glyph unicode="S" horiz-adv-x="1236" d="M119 276q0 55 4 110.5t12 113.5h141q0 -72 18.5 -146.5t60.5 -136t107.5 -101.5t160.5 -40q84 0 142 18.5t94 51t52.5 74.5t16.5 91q0 78 -38 128t-130 81q-133 45 -245 91t-192.5 107.5t-126.5 146.5t-46 208q0 94 35.5 169t97 127t143.5 80t174 28q80 0 153.5 -30 t125.5 -99q25 43 69.5 71.5t89.5 42.5q33 -106 41 -237t8 -250h-151q-16 86 -43 157.5t-64.5 124t-87 81t-110.5 28.5q-125 0 -194.5 -49t-69.5 -135q0 -59 24.5 -97t69.5 -67t110.5 -53.5t149.5 -57.5q94 -37 172 -73.5t134 -89t87 -127t31 -187.5q0 -109 -37 -194.5 t-102.5 -145t-157.5 -91.5t-205 -32q-80 0 -155.5 20.5t-133.5 69.5q-41 -29 -88 -54.5t-98 -39.5q-27 76 -38 154t-11 159z" />
<glyph unicode="T" horiz-adv-x="1396" d="M-16 979l59 483q57 -10 123.5 -14t107.5 -4h861q47 0 117.5 4t125.5 14v-477l-125 -10q-12 170 -74.5 256t-213.5 86q-92 0 -93 -57v-986q0 -182 230 -182v-92h-815v92q227 0 227 182v986q0 65 -87 65h-3q-68 0 -117 -22.5t-84 -68.5t-60.5 -114.5t-45.5 -161.5z" />
<glyph unicode="U" horiz-adv-x="1636" d="M90 1350v94h764v-94q-203 0 -203 -142v-706q0 -72 12.5 -144.5t46 -131t93 -96.5t155.5 -38q190 0 273.5 103.5t83.5 306.5v676q0 172 -219 172v94h524v-94q-178 0 -178 -172v-652q0 -127 -24.5 -229t-87 -176t-172 -114t-279.5 -40q-129 0 -236.5 36t-185.5 99.5 t-121 151.5t-43 192v762q0 141 -203 142z" />
<glyph unicode="V" horiz-adv-x="1533" d="M-39 1350v94h725v-94h-111q-61 0 -61 -27q0 -47 16 -92l347 -920l319 877q8 16 8 72q0 90 -196 90v94h540v-94h-80q-57 0 -100 -105l-518 -1278l-213 17l-490 1237q-61 129 -186 129z" />
<glyph unicode="W" horiz-adv-x="2134" d="M-18 1350v94h663v-94q-102 0 -133 -19.5t-31 -52.5q0 -8 5.5 -19.5t11.5 -27.5l295 -871l237 713l-80 215q-12 31 -54 46.5t-101 15.5v94h655v-94q-158 0 -158 -72q0 -27 15 -53l284 -863l244 787q6 29 11 54.5t5 47.5q0 98 -178 99v94h492v-94q-129 0 -195 -201 l-385 -1184l-176 25l-324 897l-290 -922l-199 25l-451 1231q-25 66 -68.5 97.5t-94.5 31.5z" />
<glyph unicode="X" horiz-adv-x="1587" d="M10 0v92q66 0 133.5 35t128.5 115l353 454l-396 564q-29 41 -81 64.5t-130 25.5v94h730v-94q-154 0 -154 -43q0 -12 22 -47l248 -367l240 332q14 20 14 59q0 66 -155 66v94h567v-94q-74 0 -129 -16.5t-88 -57.5l-381 -479l457 -643q23 -33 66.5 -47.5t121.5 -14.5v-92 h-754v92q170 0 170 29q0 23 -39 80l-264 389l-272 -379q-14 -14 -15 -57q0 -61 187 -62v-92h-580z" />
<glyph unicode="Y" horiz-adv-x="1437" d="M-35 1350v94h727v-94q-155 0 -155 -59q0 -21 34 -77l287 -473l264 471q12 27 13 86q0 51 -170 52v94h524v-94q-117 0 -172 -74l-397 -680v-428q0 -76 210 -76v-92h-792v92q219 0 219 84v412l-356 590q-104 172 -236 172z" />
<glyph unicode="Z" horiz-adv-x="1200" d="M49 66l686 1247q-39 6 -79 9t-72 3q-59 0 -112.5 -5t-98.5 -35t-83 -94.5t-69 -182.5h-133l45 454q23 -4 51.5 -7t58 -6t57.5 -4t48 -1h787v-84l-676 -1237q29 -6 65.5 -9t108.5 -3q88 0 151.5 25.5t111.5 72.5t84 114.5t69 153.5l129 -18l-62 -459h-1059z" />
<glyph unicode="[" horiz-adv-x="538" d="M113 -176v1665h352v-62h-143v-1531h143v-72h-352z" />
<glyph unicode="\" horiz-adv-x="1007" d="M72 1466h200l703 -1579h-180z" />
<glyph unicode="]" horiz-adv-x="555" d="M72 -104h139v1531h-139v62h352v-1665h-352v72z" />
<glyph unicode="^" horiz-adv-x="1062" d="M72 674l354 751h211l352 -751h-211l-246 538l-247 -538h-213z" />
<glyph unicode="_" horiz-adv-x="966" d="M-4 -94h977v-137h-977v137z" />
<glyph unicode="`" horiz-adv-x="604" d="M88 1155q0 27 16.5 54.5t69.5 27.5q33 -6 70 -31.5t77.5 -62.5t89 -78t105.5 -78l-35 -57q-53 29 -110.5 52.5t-116.5 47.5q-8 2 -34.5 10.5t-56.5 23.5t-52.5 37.5t-22.5 53.5z" />
<glyph unicode="a" horiz-adv-x="1050" d="M72 182q0 82 32.5 141.5t97 102.5t163 73.5t231.5 55.5v70q0 98 -17.5 146t-89.5 48q-70 0 -120 -19.5t-52 -76.5q20 -20 21 -66q0 -94 -119 -94q-92 0 -92 109q0 51 22.5 98t70.5 82t124 55.5t184 20.5q68 0 131.5 -16.5t113.5 -51.5t80 -91t30 -136v-459q0 -65 55 -65 h2q25 0 64 26l43 -26q-20 -66 -87 -100t-141 -34q-63 0 -122.5 30t-80.5 95q-72 -57 -131 -91t-141 -34q-117 0 -194.5 53.5t-77.5 153.5zM360 238q0 -72 20.5 -106t80.5 -34q57 0 85.5 18.5t40 48.5t12.5 66.5t5 73.5v152q-123 -16 -183.5 -64.5t-60.5 -154.5z" />
<glyph unicode="b" horiz-adv-x="1136" d="M14 1333v84l383 70v-694q100 135 275 135q74 0 144.5 -28t124.5 -84t88 -140t34 -197q0 -131 -35 -226t-95.5 -156.5t-143 -91.5t-177.5 -30q-98 0 -160.5 24t-117.5 79q-12 -27 -39 -51.5t-62 -53.5l-108 23q14 70 20.5 150.5t6.5 172.5v859q0 155 -136 155h-2zM389 408 q0 -41 4 -99.5t25.5 -112t66.5 -91t127 -37.5q57 0 90 29.5t49.5 76.5t20.5 108.5t4 125.5q0 63 -4 131.5t-23.5 125t-59.5 93.5t-111 37q-68 0 -106 -33t-56.5 -81t-22.5 -104.5t-4 -103.5v-65z" />
<glyph unicode="c" horiz-adv-x="925" d="M72 424q0 242 136 373t384 131q53 0 105.5 -15.5t93 -44t65.5 -67.5t25 -88q0 -47 -39 -82t-88 -35q-102 0 -103 109q0 8 4 28.5t4 36.5q0 35 -34.5 50.5t-71.5 15.5q-57 0 -92 -32t-54.5 -81t-25.5 -109.5t-6 -117.5q0 -80 9 -151t34.5 -123t69.5 -82.5t112 -30.5 q131 0 219 131l80 -43q-25 -61 -66.5 -106.5t-94 -74t-109 -42t-109.5 -13.5q-96 0 -179 31t-142.5 89t-93 145t-33.5 198z" />
<glyph unicode="d" horiz-adv-x="1148" d="M72 416q0 137 36.5 234.5t99 158.5t144.5 90t172 29q59 0 115.5 -21.5t91.5 -56.5v426q0 57 -160 57v92l404 60q8 -88 9 -174t1 -178v-861q0 -164 145 -174l-10 -80q-66 -2 -156 -12t-206 -33l-21 119q-96 -117 -245 -117q-90 0 -167 24t-133.5 76t-88 136t-31.5 205z M367 487q0 -72 3 -139t20.5 -120.5t55 -86t109.5 -32.5q66 0 102.5 22.5t55 67.5t22.5 111.5t4 154.5q0 180 -45 267t-162 87q-59 0 -91.5 -29.5t-49 -76.5t-20.5 -106.5t-4 -119.5z" />
<glyph unicode="e" horiz-adv-x="1011" d="M61 432q0 119 36 211t99.5 155.5t148.5 96.5t181 33q106 0 185.5 -30t131.5 -82t78.5 -125t26.5 -156v-28.5t-2 -31.5h-563q-25 0 -25 -18q0 -74 13.5 -136.5t42 -107.5t73.5 -70.5t111 -25.5q86 0 149.5 45t112.5 114l70 -49q-121 -252 -387 -252q-109 0 -198 29 t-151.5 86t-97.5 142t-35 200zM358 578q0 -12 33 -13h193q33 0 53 17.5t20 52.5q0 39 -6 73.5t-21.5 61.5t-43 42t-68.5 15q-47 0 -77.5 -21.5t-49 -56t-26 -79.5t-7.5 -92z" />
<glyph unicode="f" horiz-adv-x="739" d="M16 772v115h177q10 0 14 13t4 48q0 272 126 403.5t349 131.5q92 0 137 -40t45 -114q0 -47 -31.5 -76.5t-74.5 -29.5q-90 0 -90 75q0 12 4 25.5t8 24.5q-18 18 -47 18q-43 0 -70.5 -38t-43 -90t-20.5 -109.5t-5 -94.5v-104q0 -43 18 -43q57 0 109.5 2t99.5 6l-12 -115 h-197q-18 0 -18 -10v-588q0 -90 186 -90v-92h-610v92q137 0 137 90v580q0 10 -10 10h-185z" />
<glyph unicode="g" horiz-adv-x="1038" d="M43 -199q0 53 39 103.5t131 85.5q-70 20 -101.5 65t-31.5 97q0 61 43 115.5t129 70.5q-39 16 -70.5 37.5t-55.5 52.5t-36 73t-12 101q0 80 29.5 140.5t85 102.5t132 62.5t169.5 20.5q78 0 151.5 -20.5t132.5 -61.5q37 45 84 67.5t96 22.5q100 0 101 -88q0 -96 -80 -96 q-45 0 -76 32q-12 -4 -23.5 -10t-21.5 -12q20 -35 31.5 -74t11.5 -86q0 -180 -116.5 -258t-340.5 -78q-25 0 -48 4t-52 13q-88 -12 -88 -72q0 -41 34 -57.5t109 -16.5h240q86 0 150.5 -21.5t107.5 -56t64.5 -80t21.5 -90.5q0 -51 -24.5 -100t-76 -88t-127 -62.5 t-175.5 -23.5h-279q-59 0 -107.5 15.5t-82 42t-51 59t-17.5 69.5zM279 -158q0 -63 48 -99t148 -36h62q123 0 164.5 38t41.5 116q0 49 -38.5 74.5t-155.5 25.5h-174q-47 -16 -71.5 -44t-24.5 -75zM356 625q0 -123 20.5 -187.5t100.5 -64.5q88 0 112.5 47t24.5 139 q0 137 -22.5 207t-106.5 70t-106.5 -52.5t-22.5 -158.5z" />
<glyph unicode="h" horiz-adv-x="1378" d="M72 0v92q137 0 137 90v996q0 155 -127 155h-2v84l414 70v-709q55 72 138 107t175 35q70 0 133.5 -18.5t112.5 -54.5t77.5 -90.5t28.5 -123.5v-467q0 -74 146 -74v-92h-562v92q137 0 138 74v321q0 141 -38 213t-130 72q-98 0 -150.5 -54t-68.5 -153v-383q0 -90 153 -90 v-92h-575z" />
<glyph unicode="i" horiz-adv-x="737" d="M72 0v92q143 0 143 115v418q0 155 -125 155h-2v80l414 72v-733q0 -106 162 -107v-92h-592zM217 1276q0 135 135 135q127 0 127 -135q0 -143 -135 -143q-127 0 -127 143z" />
<glyph unicode="j" horiz-adv-x="589" d="M-96 -236q0 102 102 103q31 0 43 -17.5t18.5 -39t10.5 -39t18 -17.5q96 0 97 219v740q0 67 -155 67h-5v80l446 80v-909q0 -72 -31.5 -143.5t-85 -128t-123 -92.5t-143.5 -36q-76 0 -134 33t-58 100zM203 1276q0 135 135 135q125 0 125 -135q0 -143 -133 -143 q-127 0 -127 143z" />
<glyph unicode="k" horiz-adv-x="1214" d="M72 1333v92l430 60v-979q41 27 89 64.5t90 76.5t70.5 74t28.5 57q0 25 -118 25v84h503v-84q-82 0 -225 -60q-27 -29 -59.5 -61.5l-73.5 -73.5l235 -418q70 -98 142 -98h61v-92h-551v92q66 0 74 14l-162 322q-23 -14 -48.5 -28.5t-55.5 -28.5v-197q0 -82 92 -82v-92h-514 v92q137 0 137 90v1061q0 90 -145 90z" />
<glyph unicode="l" horiz-adv-x="751" d="M72 1333v84l448 68v-1319q0 -74 160 -74v-92h-592v92q143 0 143 82v1069q0 90 -159 90z" />
<glyph unicode="m" horiz-adv-x="1953" d="M72 772v82l405 76q18 -16 19 -58v-79q53 63 126.5 98t159.5 35t156 -37t115 -117q59 78 142 116t181 38q70 0 135.5 -15.5t116.5 -52.5t83 -98.5t32 -151.5v-426q0 -90 137 -90v-92h-541v92q68 0 96.5 22.5t28.5 67.5v385q0 111 -33.5 166t-119.5 55q-68 0 -112 -40.5 t-73 -126.5v-406q0 -59 30 -91t97 -32v-92h-530v92q66 0 92.5 33t26.5 96v291q0 137 -34 206.5t-120 69.5q-98 0 -142 -61t-44 -184v-353q0 -98 127 -98v-92h-533v92q121 0 121 90v539q0 51 -145 51z" />
<glyph unicode="n" horiz-adv-x="1368" d="M72 772v82l405 76q16 -16 17 -58v-79q53 66 133 98.5t172 32.5q70 0 134 -18.5t114.5 -56.5t81 -94.5t30.5 -129.5v-467q0 -66 137 -66v-92h-551v92q70 0 98.5 19.5t28.5 54.5v346q0 137 -43 206.5t-141 69.5t-142 -61t-44 -184v-377q0 -35 32.5 -54.5t110.5 -19.5v-92 h-549v92q121 0 121 82v539q0 59 -102 59h-43z" />
<glyph unicode="o" horiz-adv-x="1118" d="M61 432q0 139 43 234.5t114 154t162 83t187 24.5q98 0 187.5 -33t157 -93.5t106.5 -147t39 -197.5q0 -129 -44 -223.5t-115 -155t-160 -89t-179 -28.5q-102 0 -193.5 33t-159 93t-106.5 147.5t-39 197.5zM367 520q0 -68 3 -147.5t22.5 -149t60.5 -117t114 -47.5 q68 0 106 35t56.5 84t21.5 101.5t3 87.5q0 68 -4.5 147.5t-22.5 149t-58 116.5t-110 47t-108.5 -35.5t-57 -85t-22.5 -101.5t-4 -85z" />
<glyph unicode="p" horiz-adv-x="1183" d="M37 764v63l401 105q8 -20 10.5 -41t2.5 -41v-53q88 131 260 131q100 0 175 -36t125 -98.5t74.5 -145.5t24.5 -175q0 -123 -30.5 -216t-86 -155.5t-132.5 -94.5t-169 -32t-143 18.5t-92 51.5q2 -10 2 -24.5v-30.5v-234q0 -57 170 -57v-84h-578v84q115 0 115 49v932 q0 84 -129 84zM451 377q8 -59 17 -110.5t30.5 -90.5t58.5 -61.5t102 -22.5q59 0 92 29t49.5 75t19.5 106t3 122q0 63 -5 127.5t-25.5 117t-60.5 86t-107 33.5q-66 0 -101 -38.5t-51 -89t-19 -100.5t-3 -73v-110z" />
<glyph unicode="q" horiz-adv-x="1177" d="M72 416q0 268 118.5 382.5t344.5 114.5q92 0 159.5 -28.5t114.5 -75.5q16 27 35.5 52.5t38.5 51.5h155q-8 -72 -13 -128t-5 -97v-883q0 -106 127 -106v-84h-574v84q160 0 160 106v269q-53 -55 -109.5 -80t-129.5 -25q-111 0 -191 36t-131 97.5t-75.5 142.5t-24.5 171z M360 473q0 -78 6.5 -144.5t27 -115.5t59.5 -76.5t104 -27.5q98 0 137 62t39 187v129q0 55 -7 116t-27.5 110t-60.5 81.5t-103 32.5q-55 0 -89 -21.5t-52.5 -65.5t-26 -110.5t-7.5 -156.5z" />
<glyph unicode="r" horiz-adv-x="923" d="M72 780v80l430 72v-180q14 29 38.5 60.5t55.5 57t66.5 42t74.5 16.5q176 0 176 -158q0 -135 -112 -135q-100 0 -101 94v17.5t2 17.5h-20q-59 0 -94 -39t-54.5 -93t-25.5 -113.5t-6 -102.5v-226q0 -98 162 -98v-92h-586v92q137 0 137 107v442q0 139 -143 139z" />
<glyph unicode="s" horiz-adv-x="833" d="M66 334h102q23 -78 45.5 -129t52 -82t68.5 -43t92 -12q162 0 168 104q0 61 -38 94t-95.5 54.5t-124 40t-123.5 48t-95 82t-38 140.5q0 61 21.5 115.5t64.5 94.5t105.5 63.5t146.5 23.5q47 0 91 -9.5t85 -35.5q16 10 42 23.5t71 17.5q20 -82 25 -157t5 -149h-90 q-45 111 -109.5 164.5t-129.5 53.5q-29 0 -60 -7.5t-56.5 -21.5t-42 -38t-16.5 -56q0 -35 33 -58.5t78 -42t93 -31t79 -22.5q49 -16 95 -35.5t83 -49.5t58.5 -74t21.5 -107q0 -74 -27.5 -133.5t-74.5 -102.5t-108.5 -65.5t-131.5 -22.5t-111.5 12.5t-76.5 38.5 q-27 -20 -62 -31.5t-98 -15.5q-12 78 -15 170.5t-3 190.5z" />
<glyph unicode="t" horiz-adv-x="739" d="M0 780l10 88q49 8 101.5 38t98.5 73t80 97t46 114l88 12v-315h156q25 0 54.5 6t55.5 16v-129h-266v-542q0 -23 1 -45.5t10 -41t27.5 -30.5t53.5 -12q55 0 100.5 44t55.5 111l76 -24q0 -63 -30 -113.5t-78 -85.5t-110.5 -53.5t-126.5 -18.5q-53 0 -100 13.5t-84 40 t-58.5 68.5t-21.5 99v590h-139z" />
<glyph unicode="u" horiz-adv-x="1290" d="M31 877l434 28v-555q0 -47 3 -91t17.5 -78t43 -53t77.5 -19q78 0 124 54t77 152v422q0 57 -152 58l-12 82l449 26v-721q0 -57 143 -65l22 -84l-430 -43q-8 14 -10 31.5t-2 39.5v33q-23 -29 -44 -50t-51 -36.5t-71 -24t-98 -8.5q-84 0 -152.5 16.5t-118 55.5t-76 103.5 t-26.5 160.5v426q0 57 -135 58z" />
<glyph unicode="v" horiz-adv-x="1054" d="M-10 795v92h561v-92q-129 0 -129 -41q0 -12 10 -47l197 -461l176 430q14 27 14 69q0 49 -121 50v92h373v-92q-55 0 -82.5 -28t-50.5 -81l-305 -709l-170 -18l-359 786q-14 31 -41.5 40.5t-72.5 9.5z" />
<glyph unicode="w" horiz-adv-x="1587" d="M-12 795v92h528v-92q-98 0 -98 -50q-4 -16 14 -59l172 -430l162 350l-43 139q-10 29 -47 39.5t-84 10.5v92h536v-92q-114 0 -114 -32q0 -5 4 -25.5t12 -59.5l164 -414l156 404q10 23 13 42t3 35q0 49 -129 50v92h373v-92q-86 0 -115 -72l-307 -754l-156 -10l-217 518 l-225 -508l-154 -10l-317 764q-16 33 -50 52.5t-81 19.5z" />
<glyph unicode="x" horiz-adv-x="1026" d="M23 0v92q96 0 163 76l228 256l-250 330q-16 23 -54 32t-79 9v92h469v-92q-96 0 -97 -25q0 -6 3.5 -19.5t11.5 -23.5l125 -164l127 144q12 14 19 28.5t7 34.5q0 25 -110 25v92h397v-92q-59 0 -99 -17.5t-67 -48.5l-207 -242l258 -335q43 -59 146 -60v-92h-486v92 q104 0 105 23q-6 10 -12.5 23.5t-16.5 29.5l-127 178l-149 -166q-12 -14 -20.5 -25.5t-8.5 -21.5q0 -23 23.5 -32t89.5 -9v-92h-389z" />
<glyph unicode="y" horiz-adv-x="1026" d="M-4 795v92h545v-92h-56q-61 0 -65 -29q0 -20 2 -38.5t12 -37.5l201 -430l151 385q23 61 23 100q0 49 -135 50v92h387v-92q-98 0 -123 -64l-244 -614q-41 -102 -83 -190.5t-90 -154t-102 -103.5t-122 -38q-139 0 -139 117q0 119 94 119q37 0 53.5 -17.5t23.5 -39t13 -39 t23 -17.5q23 0 57.5 40t75.5 147l-381 782q-35 72 -121 72z" />
<glyph unicode="z" horiz-adv-x="868" d="M59 0v76l408 688h-39q-66 0 -125 -16q-23 -6 -37 -13.5t-29.5 -25t-34 -50t-48.5 -90.5l-70 13q8 162 68 325q39 -10 94 -15t125 -5h424v-60l-418 -696q12 -6 26 -6h80q57 0 97.5 12.5t68 37t47 62t35.5 91.5l90 -13q-10 -86 -25.5 -162.5t-33.5 -152.5h-703z" />
<glyph unicode="{" horiz-adv-x="614" d="M72 655l116 115v567q23 31 63 56.5t89 45t102.5 33t100.5 19.5v-61q-92 -23 -142 -80v-629l-67 -66l33.5 -33.5t33.5 -31.5v-576q16 -41 54.5 -74.5t87.5 -48.5v-69q-41 2 -90.5 10t-97.5 22.5t-92 34t-75 43.5v607z" />
<glyph unicode="|" horiz-adv-x="729" d="M252 -211v1745q0 18 29.5 27.5t62.5 9.5q35 0 67.5 -9.5t32.5 -27.5v-1745q0 -20 -30.5 -29.5t-61.5 -9.5q-37 0 -68.5 9.5t-31.5 29.5z" />
<glyph unicode="}" horiz-adv-x="614" d="M72 -117q45 12 79.5 30.5t61.5 51.5v629l68 65q-16 16 -34 33t-34 33v573q-16 43 -54 76t-87 49v68q43 -4 91 -12.5t96 -22.5t92 -32.5t75 -41.5v-606l117 -117l-117 -116v-568q-23 -31 -63.5 -55t-90 -43.5t-102.5 -33t-98 -21.5v61z" />
<glyph unicode="~" horiz-adv-x="1210" d="M115 602q16 53 48 97t71.5 76t86 49.5t89.5 17.5q88 0 137 -22.5t85 -48.5t69.5 -48.5t93.5 -22.5q53 0 100 31t90 111l80 -49q-29 -106 -108.5 -173t-190.5 -67q-59 0 -109.5 22.5t-94.5 50t-88 50t-91 22.5q-53 0 -102.5 -38.5t-85.5 -98.5z" />
<glyph unicode="&#xa1;" horiz-adv-x="647" d="M143 12q0 33 5.5 65t14.5 75t23.5 102t30.5 146t34.5 208t39.5 285h88q16 -170 32.5 -293t31 -210t26.5 -145.5t21.5 -99.5t14.5 -71.5t5 -61.5q0 -86 -55.5 -126t-128.5 -40q-72 0 -127.5 40t-55.5 126zM184 1186q0 150 150 149q160 1 160 -149q0 -152 -160 -152 q-150 0 -150 152z" />
<glyph unicode="&#xa2;" horiz-adv-x="952" d="M72 641q0 117 26.5 202t76.5 143t123 94t165 55v399q0 37 45 37q53 0 53 -37v-389q63 -2 118.5 -19.5t95.5 -45t62.5 -66.5t22.5 -84q0 -49 -41 -84t-86 -35q-102 0 -102 111q0 18 2 22l6 41q0 55 -78 66v-725q158 6 238 133l80 -47q-20 -55 -56.5 -97.5t-80.5 -70 t-91 -44t-90 -22.5v-389q0 -39 -45 -39q-53 0 -53 39v389q-180 16 -285.5 137t-105.5 326zM328 713q0 -129 28.5 -224.5t106.5 -140.5v688q-39 -20 -64.5 -56t-41 -81t-22.5 -93t-7 -93z" />
<glyph unicode="&#xa3;" horiz-adv-x="1443" d="M45 68q45 66 91 113.5t106 76.5q45 59 87 127t77 154h-148v108h188q25 59 41.5 124t32.5 126q76 289 224.5 421t377.5 132q129 0 188.5 -40t59.5 -112q0 -111 -92 -110q-102 0 -102 100q0 27 14 47q-37 18 -88 19q-86 0 -132 -72t-75 -178.5t-53.5 -229t-67.5 -227.5h297 v-108h-371q-31 -78 -69.5 -133.5t-95.5 -102.5q25 8 46 10t44 2q63 0 129.5 -39.5t128.5 -113.5q41 -51 87 -75t113 -24q106 0 228 111l63 -45q-129 -160 -418 -160q-186 0 -284 137q-74 104 -180 105q-37 0 -91.5 -21.5t-108.5 -53.5t-99.5 -70.5t-65.5 -75.5z" />
<glyph unicode="&#xa5;" horiz-adv-x="1464" d="M72 1333v92h649v-92q-131 0 -131 -57q0 -23 24 -68l242 -473l221 465q8 14 10.5 30.5t2.5 33.5q0 18 -5.5 30.5t-20.5 21.5t-44 13t-76 4v92h449v-92q-51 0 -89 -17.5t-57 -53.5l-274 -551h297v-158h-357v-102h357v-158h-357v-127q0 -74 179 -74v-92h-703v92 q186 0 186 82v119h-372v158h372v102h-372v158h305l-234 454q-45 86 -99 127t-103 41z" />
<glyph unicode="&#xa6;" horiz-adv-x="729" d="M252 -211v709q0 20 29.5 29.5t62.5 9.5q35 0 67.5 -9.5t32.5 -29.5v-709q0 -20 -30.5 -29.5t-61.5 -9.5q-37 0 -68.5 9.5t-31.5 29.5zM252 848v686q0 18 29.5 27.5t62.5 9.5q35 0 67.5 -9.5t32.5 -27.5v-686q0 -20 -30.5 -29.5t-61.5 -9.5q-37 0 -68.5 9t-31.5 30z" />
<glyph unicode="&#xa7;" horiz-adv-x="829" d="M72 334h82q25 -76 51 -127t59 -82t73 -44t89 -13q162 0 162 122q0 37 -13.5 63t-40 46t-67.5 36.5t-94 33.5q-47 14 -99.5 36.5t-97.5 56.5t-74.5 80t-29.5 107q0 86 41 154.5t123 103.5q-76 37 -113 93.5t-37 121.5q0 59 17.5 110.5t54.5 89.5t94 59.5t135 21.5 q47 0 90 -10.5t88 -34.5q16 10 40 20.5t50 20.5q23 -82 33 -160t10 -145h-69q-96 215 -250 215q-57 0 -101.5 -29t-44.5 -94q0 -37 39 -64.5t97.5 -53.5t126 -54.5t126 -67.5t97.5 -93t39 -132q0 -92 -49.5 -151.5t-128.5 -94.5q72 -23 117.5 -72t45.5 -131 q0 -68 -23.5 -120t-65.5 -89.5t-98 -61.5t-120 -32q-55 0 -101 11.5t-87 39.5q-51 -39 -139 -47q-37 162 -37 361zM221 713q0 -41 18.5 -74t49 -54.5t69.5 -32.5t80 -11q162 0 162 125q0 31 -15.5 61.5t-45 55t-72.5 39t-98 14.5q-59 0 -103.5 -29t-44.5 -94z" />
<glyph unicode="&#xa8;" horiz-adv-x="765" d="M72 1118q0 109 112 109q109 0 109 -109q0 -106 -109 -106q-113 0 -112 106zM475 1118q0 109 113 109q104 0 104 -109q0 -106 -104 -106q-113 0 -113 106z" />
<glyph unicode="&#xa9;" horiz-adv-x="1632" d="M90 705q0 158 56.5 293t154.5 234t230 155.5t284 56.5q156 0 289 -54.5t229.5 -151.5t150.5 -233.5t54 -299.5q0 -156 -51 -290t-145.5 -233.5t-227.5 -156t-299 -56.5t-300 57.5t-228 157t-145.5 233.5t-51.5 288zM225 705q0 -176 58.5 -297t146.5 -198t193.5 -110.5 t197.5 -33.5q162 0 275.5 61t184.5 155.5t102.5 207t31.5 215.5q0 168 -58.5 289.5t-147.5 198.5t-193.5 113.5t-194.5 36.5q-123 0 -231.5 -46t-189.5 -131t-128 -202.5t-47 -258.5zM426 696q0 131 36 215t96 133.5t137 67.5t159 18q41 0 85 -14t83 -39q23 18 51.5 30.5 t50.5 16.5q4 -6 12.5 -31.5t16.5 -65.5t14.5 -91t6.5 -109h-76q-31 111 -92.5 163t-147.5 52q-59 0 -96 -25.5t-56.5 -66.5t-25.5 -94t-6 -108q0 -82 7 -150t29.5 -116t62.5 -74.5t106 -26.5q43 0 76.5 8t63.5 29.5t54.5 59.5t46.5 97l74 -24q-27 -135 -127 -201.5 t-254 -66.5q-72 0 -141.5 24.5t-123.5 74.5t-88 128t-34 186z" />
<glyph unicode="&#xaa;" horiz-adv-x="600" d="M72 1053q0 135 270 188v31q0 92 -68 92q-29 0 -48 -6t-23 -33q10 -31 10 -37q0 -53 -68 -53q-55 0 -55 61q0 27 16.5 52.5t43 44t61.5 30t72 11.5q98 0 138 -36t40 -122v-236q0 -27 22 -26q16 0 31 14l33 -18q-25 -78 -103 -78q-35 0 -56 12t-32 45q-70 -57 -157 -57 q-127 0 -127 121zM193 1065q0 -57 55 -57q53 0 73.5 31.5t24.5 68.5v68q-59 -8 -106 -32t-47 -79z" />
<glyph unicode="&#xab;" horiz-adv-x="1136" d="M100 539l402 370l53 -61l-227 -309l227 -316l-55 -55zM516 539l404 370l51 -61l-226 -309l226 -316l-53 -55z" />
<glyph unicode="&#xad;" horiz-adv-x="669" d="M72 475v156h526v-156h-526z" />
<glyph unicode="&#xae;" horiz-adv-x="1632" d="M90 705q0 158 56.5 293t154.5 234t230 155.5t284 56.5q156 0 289 -54.5t229.5 -151.5t150.5 -233.5t54 -299.5q0 -156 -51 -290t-145.5 -233.5t-227.5 -156t-299 -56.5t-300 57.5t-228 157t-145.5 233.5t-51.5 288zM225 705q0 -176 58.5 -297t146.5 -198t193.5 -110.5 t197.5 -33.5q162 0 275.5 61t184.5 155.5t102.5 207t31.5 215.5q0 168 -58.5 289.5t-147.5 198.5t-193.5 113.5t-194.5 36.5q-123 0 -231.5 -46t-189.5 -131t-128 -202.5t-47 -258.5zM455 1018v86h182q86 0 135 2t102 2q57 0 107.5 -9t87.5 -32t58.5 -62.5t21.5 -101.5 q0 -94 -49 -142t-148 -65q70 -23 100.5 -74t45 -103t23.5 -92t38 -40q12 0 23.5 13.5t15.5 41.5l62 -12q0 -20 -9.5 -45t-27 -46.5t-43 -36.5t-56.5 -15q-74 0 -114.5 28.5t-62 70.5t-30 91t-18.5 91t-28.5 71t-59.5 29h-35q-20 0 -22 -2v-220q0 -61 106 -61v-84h-397v84 q102 0 102 61v512q0 59 -110 60zM754 766q2 -2 11 -3t44 -1q68 0 107.5 26.5t39.5 106.5q0 59 -33.5 87t-119.5 28q-49 0 -49 -52v-192z" />
<glyph unicode="&#xb0;" horiz-adv-x="712" d="M49 1159q0 57 23.5 110.5t64.5 93.5t96.5 63.5t120.5 23.5q63 0 120.5 -23.5t98.5 -63.5t66 -93.5t25 -110.5q0 -61 -25 -115.5t-66 -95.5t-98 -64.5t-121 -23.5q-66 0 -121 23.5t-96 64.5t-64.5 95.5t-23.5 115.5zM190 1159q0 -78 46.5 -120t117.5 -42q70 0 117 42 t47 120q0 66 -47 111t-117 45q-72 0 -118 -45t-46 -111z" />
<glyph unicode="&#xb2;" horiz-adv-x="737" d="M59 575q174 172 277.5 318.5t103.5 282.5q0 63 -24.5 93.5t-89.5 30.5q-106 0 -119 -51q43 -23 43 -69q0 -88 -82 -88q-37 0 -58.5 26.5t-21.5 81.5q0 225 285 225q131 0 205.5 -59t74.5 -182q0 -135 -95 -257t-263 -261h168q53 0 82.5 19.5t54.5 88.5l88 -4l-59 -262 h-441q-18 0 -53 -1t-63 -5z" />
<glyph unicode="&#xb3;" horiz-adv-x="733" d="M51 645q0 88 92 88q72 0 72 -67q0 -16 -5 -30.5t-11 -25.5q14 -8 47 -8q195 0 194 184q0 76 -30.5 114t-83.5 38h-64q-45 0 -45 47q0 25 10.5 40t34.5 15q154 0 154 156q0 113 -97 113q-74 0 -86 -13q20 -18 21 -55q0 -82 -80 -82q-78 0 -78 80q0 188 256 188 q117 0 193 -51t76 -162q0 -66 -44.5 -111.5t-95.5 -74.5q37 -12 70 -32.5t58.5 -49t41 -67.5t15.5 -88q0 -152 -106.5 -227t-278.5 -75q-229 0 -230 156z" />
<glyph unicode="&#xb4;" horiz-adv-x="602" d="M88 989q51 33 101.5 76t95.5 81t83 64.5t66 26.5q51 0 65.5 -27.5t14.5 -54.5q0 -29 -20.5 -49.5t-47 -34.5t-50 -22.5t-31.5 -10.5q-57 -23 -116 -47t-126 -61z" />
<glyph unicode="&#xb6;" horiz-adv-x="1155" d="M74 1130q0 137 74.5 216t234.5 79h715v-92q-125 0 -125 -112v-1221h-158v922q-25 -12 -61.5 -26.5t-63.5 -23.5v-872h-158v821q-35 -12 -77.5 -19t-77.5 -7q-80 0 -137.5 28.5t-94 75.5t-54 107.5t-17.5 123.5z" />
<glyph unicode="&#xb7;" horiz-adv-x="530" d="M111 725q0 150 159 149q150 1 150 -149t-150 -150q-160 0 -159 150z" />
<glyph unicode="&#xb8;" horiz-adv-x="397" d="M166 33h80v-92q98 -4 135 -50.5t37 -99.5q0 -37 -20.5 -66.5t-54.5 -51t-80 -33t-97 -11.5v70q72 6 104.5 31.5t32.5 60.5q0 29 -13.5 46.5t-33.5 25.5t-45 10t-45 2v158z" />
<glyph unicode="&#xb9;" horiz-adv-x="608" d="M49 1245v90q51 8 87 15.5t64.5 18.5t54.5 29.5t58 47.5l113 -21q-8 -39 -10 -63.5t-2 -40.5v-662q0 -57 151 -57v-94h-512v94q152 0 152 57v562q0 25 -23 24h-133z" />
<glyph unicode="&#xba;" horiz-adv-x="593" d="M49 1176q0 61 19.5 109t53.5 82t78 52.5t95 18.5t95 -20.5t75 -54.5t48 -79t17 -96q0 -59 -19 -107.5t-52 -82t-77 -52t-91 -18.5q-53 0 -98.5 19.5t-77 53t-49 78.5t-17.5 97zM178 1223q0 -35 3 -75t15.5 -75t35 -58.5t63.5 -23.5q37 0 58.5 17.5t33.5 42t15.5 50 t3.5 42.5q0 33 -4.5 73.5t-16.5 74.5t-34.5 57.5t-59.5 23.5q-39 0 -61.5 -17.5t-34 -41t-14.5 -49t-3 -41.5z" />
<glyph unicode="&#xbb;" horiz-adv-x="1136" d="M100 229l224 310l-224 315l54 55l399 -370l-401 -371zM514 229l229 310l-229 315l53 55l404 -370l-406 -371z" />
<glyph unicode="&#xbc;" horiz-adv-x="1714" d="M113 1245v90q53 6 95 13.5t76.5 19.5t66.5 30.5t67 47.5l71 -19q-6 -39 -8 -64.5t-2 -41.5v-662q0 -57 148 -57v-94h-510v94q152 0 151 57v562q0 25 -22 24h-133zM381 0l811 1425h145l-819 -1425h-137zM909 244v90l422 590l135 -4q-23 -106 -22 -129v-408h41q16 0 39.5 7 t52.5 18v-164h-133v-123q0 -27 59 -27v-94h-325v94q66 0 65 27v123h-334zM1069 383h174v238z" />
<glyph unicode="&#xbd;" horiz-adv-x="1716" d="M113 1245v90q51 6 93 13.5t76.5 19.5t67.5 30.5t68 47.5l74 -19q-8 -39 -10.5 -64.5t-2.5 -41.5v-662q0 -57 148 -57v-94h-510v94q152 0 151 57v562q0 25 -22 24h-133zM381 0l813 1425h143l-819 -1425h-137zM985 68q86 84 159 162.5t126 153.5t83.5 145.5t30.5 138.5 q0 125 -135 125q-106 0 -119 -52q45 -18 46 -69q0 -88 -84 -88q-37 0 -59.5 26.5t-22.5 81.5q0 225 288 226q131 0 215 -59.5t84 -182.5q0 -68 -27.5 -132.5t-77.5 -127t-119.5 -127t-153.5 -131.5h188q57 0 85 19.5t52 86.5l90 -4l-61 -260h-459q-23 0 -55.5 -3t-61.5 -3z " />
<glyph unicode="&#xbe;" horiz-adv-x="1714" d="M51 645q0 88 92 88q74 0 74 -67q0 -35 -18 -56q14 -8 47 -8q195 0 194 184q0 76 -36.5 114t-141.5 38q-43 0 -43 47q0 25 10.5 40t32.5 15q156 0 156 156q0 113 -99 113q-76 0 -83 -13q18 -18 18 -55q0 -82 -80 -82q-76 0 -76 80q0 188 256 188q115 0 191 -52t76 -161 q0 -66 -23 -111.5t-74 -74.5q141 -49 142 -237q0 -76 -28 -132.5t-79 -94.5t-120.5 -56.5t-155.5 -18.5q-231 0 -232 156zM381 0l811 1425h145l-819 -1425h-137zM909 244v90l422 590l133 -4q-8 -45 -14 -78t-6 -51v-408h41q16 0 39.5 7t52.5 18v-164h-133v-123q0 -27 59 -27 v-94h-327v94q66 0 65 27v123h-332zM1069 383h172v238z" />
<glyph unicode="&#xbf;" horiz-adv-x="856" d="M72 158q0 86 28.5 148.5t71.5 111.5t93 88t93 79t72 85t29 106v101h78q29 -70 28 -156q0 -63 -15 -112.5t-38 -91.5t-50.5 -80t-50 -79t-38 -89t-15.5 -111q0 -41 3.5 -75t17.5 -57.5t43 -36t82 -12.5q27 0 58.5 11.5t41.5 36.5q-16 10 -16 53q0 47 27.5 74.5t80.5 27.5 q86 0 86 -121q0 -111 -88 -166t-248 -55q-78 0 -145.5 12.5t-118.5 46t-80.5 96t-29.5 165.5zM346 1169q0 150 150 150q159 0 159 -150q0 -152 -159 -151q-150 0 -150 151z" />
<glyph unicode="&#xc0;" horiz-adv-x="1515" d="M-23 0v100q123 10 181 148l516 1231l203 -27l507 -1278q10 -25 30 -40t44.5 -24.5t50 -13.5t50.5 -6v-90h-736v90q31 4 64 8t60.5 10.5t45 12.5t17.5 16t-5.5 24.5t-11.5 33.5l-96 264q-10 23 -43 34t-74 11h-317q-70 0 -84 -45l-72 -221q-8 -14 -8 -54q0 -84 186 -84 v-100h-508zM453 641q0 -18 67 -18h268q51 0 52 10q-4 6 -11.5 34.5t-29.5 82.5l-150 372l-174 -415q-23 -55 -22 -66zM522 1710q0 27 16.5 54.5t69.5 27.5q33 -6 70 -31.5t77.5 -62.5t89 -78t105.5 -78l-35 -57q-53 29 -110.5 52.5t-116.5 47.5q-8 2 -34.5 10.5t-56.5 23.5 t-52.5 37.5t-22.5 53.5z" />
<glyph unicode="&#xc1;" horiz-adv-x="1515" d="M-23 0v100q123 10 181 148l516 1231l203 -27l507 -1278q10 -25 30 -40t44.5 -24.5t50 -13.5t50.5 -6v-90h-736v90q31 4 64 8t60.5 10.5t45 12.5t17.5 16t-5.5 24.5t-11.5 33.5l-96 264q-10 23 -43 34t-74 11h-317q-70 0 -84 -45l-72 -221q-8 -14 -8 -54q0 -84 186 -84 v-100h-508zM453 641q0 -18 67 -18h268q51 0 52 10q-4 6 -11.5 34.5t-29.5 82.5l-150 372l-174 -415q-23 -55 -22 -66zM539 1544q51 33 101.5 76t95.5 81t83 64.5t66 26.5q51 0 65.5 -27.5t14.5 -54.5q0 -29 -20.5 -49.5t-47 -34.5t-50 -22.5t-31.5 -10.5q-57 -23 -116 -47 t-126 -61z" />
<glyph unicode="&#xc2;" horiz-adv-x="1515" d="M-23 0v100q123 10 181 148l516 1231l203 -27l507 -1278q10 -25 30 -40t44.5 -24.5t50 -13.5t50.5 -6v-90h-736v90q31 4 64 8t60.5 10.5t45 12.5t17.5 16t-5.5 24.5t-11.5 33.5l-96 264q-10 23 -43 34t-74 11h-317q-70 0 -84 -45l-72 -221q-8 -14 -8 -54q0 -84 186 -84 v-100h-508zM453 641q0 -18 67 -18h268q51 0 52 10q-4 6 -11.5 34.5t-29.5 82.5l-150 372l-174 -415q-23 -55 -22 -66zM518 1548l256 246l252 -246l-45 -41l-205 119l-215 -117z" />
<glyph unicode="&#xc3;" horiz-adv-x="1515" d="M-23 0v100q123 10 181 148l516 1231l203 -27l507 -1278q10 -25 30 -40t44.5 -24.5t50 -13.5t50.5 -6v-90h-736v90q31 4 64 8t60.5 10.5t45 12.5t17.5 16t-5.5 24.5t-11.5 33.5l-96 264q-10 23 -43 34t-74 11h-317q-70 0 -84 -45l-72 -221q-8 -14 -8 -54q0 -84 186 -84 v-100h-508zM430 1604q25 86 83 137t120 51q57 0 90 -17.5t57.5 -37t48 -37t60.5 -17.5q33 0 64.5 23t60.5 86l61 -43q-18 -80 -73.5 -132t-133.5 -52q-41 0 -73.5 17t-61.5 37.5t-57.5 38t-61.5 17.5q-35 0 -66.5 -30.5t-58.5 -77.5zM453 641q0 -18 67 -18h268q51 0 52 10 q-4 6 -11.5 34.5t-29.5 82.5l-150 372l-174 -415q-23 -55 -22 -66z" />
<glyph unicode="&#xc4;" horiz-adv-x="1515" d="M-23 0v100q123 10 181 148l516 1231l203 -27l507 -1278q10 -25 30 -40t44.5 -24.5t50 -13.5t50.5 -6v-90h-736v90q31 4 64 8t60.5 10.5t45 12.5t17.5 16t-5.5 24.5t-11.5 33.5l-96 264q-10 23 -43 34t-74 11h-317q-70 0 -84 -45l-72 -221q-8 -14 -8 -54q0 -84 186 -84 v-100h-508zM449 1673q0 109 112 109q109 0 109 -109q0 -106 -109 -106q-113 0 -112 106zM453 641q0 -18 67 -18h268q51 0 52 10q-4 6 -11.5 34.5t-29.5 82.5l-150 372l-174 -415q-23 -55 -22 -66zM852 1673q0 109 113 109q104 0 104 -109q0 -106 -104 -106q-113 0 -113 106z " />
<glyph unicode="&#xc5;" horiz-adv-x="1515" d="M-23 0v100q123 10 181 148l481 1147q-63 29 -101 84t-38 125q0 45 19.5 85t52 70.5t77.5 48t99 17.5q53 0 99 -17.5t81 -48t54 -70.5t19 -85q0 -59 -29.5 -109.5t-80.5 -81.5l493 -1239q10 -25 30 -40t44.5 -24.5t50 -13.5t50.5 -6v-90h-736v90q31 4 64 8t60.5 10.5 t45 12.5t17.5 16t-5.5 24.5t-11.5 33.5l-96 264q-10 23 -43 34t-74 11h-317q-70 0 -84 -45l-72 -221q-8 -14 -8 -54q0 -84 186 -84v-100h-508zM453 645q0 -12 14 -17t53 -5h268q51 0 52 10q-4 6 -11.5 34.5t-29.5 82.5l-150 372l-174 -415q-10 -23 -17 -37.5t-5 -24.5z M618 1604q0 -59 37 -90t93 -31q55 0 92 31t37 90q0 47 -37 80.5t-92 33.5t-92.5 -33.5t-37.5 -80.5z" />
<glyph unicode="&#xc6;" horiz-adv-x="2066" d="M-23 0v100q119 8 179 148l436 1022q0 14 4 18q-18 29 -168 29v127h1483l16 -426l-131 -12q-23 117 -51.5 181t-69.5 95t-99 37t-138 6h-58q-147 0 -147 -82v-383q0 -51 35 -51h71q51 0 85 6t55.5 28.5t34 67.5t20.5 125h129v-579h-129q-8 80 -18.5 126t-31 69.5t-54 30.5 t-91.5 7q-59 0 -82.5 -14t-23.5 -43v-408q0 -106 156 -106h65q90 0 151.5 13t107.5 52t84 107.5t81 177.5l125 -18l-61 -451h-1268v92q195 0 194 125v256q-4 31 -32 31h-373q-70 0 -84 -45l-68 -209q-8 -16 -10 -32.5t-2 -33.5q0 -84 186 -84v-100h-508zM453 641 q0 -18 67 -18h314q29 0 34 24v637q0 33 -41 33h-51q-45 0 -69 -57l-224 -531q-14 -33 -22 -54.5t-8 -33.5z" />
<glyph unicode="&#xc7;" horiz-adv-x="1472" d="M104 696q0 168 35 310.5t112 245t198.5 159.5t293.5 57q51 0 107.5 -6t112 -20.5t104.5 -38t84 -55.5q53 84 154 114q80 -188 79 -518h-153q-53 221 -147.5 317.5t-256.5 96.5q-111 0 -180 -49t-109 -129t-55.5 -183.5t-15.5 -210.5q0 -145 17.5 -272t62.5 -220 t124 -147.5t201 -54.5q158 0 263.5 87t183.5 286l92 -35q-61 -211 -219 -337t-399 -126v-26q98 -4 135 -50.5t37 -99.5q0 -37 -20.5 -66.5t-54.5 -51t-80 -33t-97 -11.5v70q72 6 104.5 31.5t32.5 60.5q0 29 -13.5 46.5t-34 25.5t-45 10t-44.5 2v98q-166 14 -283 75 t-188.5 157t-104.5 221t-33 270z" />
<glyph unicode="&#xc8;" horiz-adv-x="1511" d="M104 1350v94h1252l16 -426l-133 -12q-20 119 -56 184t-88.5 95t-120 35t-151.5 5q-150 0 -149 -82v-383q0 -25 10 -38t39 -13q51 0 95 6t78 28.5t55.5 67.5t29.5 125h125v-579h-125q-8 76 -23.5 121t-43 69.5t-68.5 32.5t-98 10q-74 -6 -74 -57v-408q0 -106 164 -106 q131 0 211.5 20.5t130 63.5t80 109.5t63.5 156.5l123 -18l-60 -451h-1265v92q195 0 194 125v969q0 164 -211 164zM598 1710q0 27 16.5 54.5t69.5 27.5q33 -6 70 -31.5t77.5 -62.5t89 -78t105.5 -78l-35 -57q-53 29 -110.5 52.5t-116.5 47.5q-8 2 -34.5 10.5t-56.5 23.5 t-52.5 37.5t-22.5 53.5z" />
<glyph unicode="&#xc9;" horiz-adv-x="1511" d="M104 1350v94h1252l16 -426l-133 -12q-20 119 -56 184t-88.5 95t-120 35t-151.5 5q-150 0 -149 -82v-383q0 -25 10 -38t39 -13q51 0 95 6t78 28.5t55.5 67.5t29.5 125h125v-579h-125q-8 76 -23.5 121t-43 69.5t-68.5 32.5t-98 10q-74 -6 -74 -57v-408q0 -106 164 -106 q131 0 211.5 20.5t130 63.5t80 109.5t63.5 156.5l123 -18l-60 -451h-1265v92q195 0 194 125v969q0 164 -211 164zM620 1544q51 33 101.5 76t95.5 81t83 64.5t66 26.5q51 0 65.5 -27.5t14.5 -54.5q0 -29 -20.5 -49.5t-47 -34.5t-50 -22.5t-31.5 -10.5q-57 -23 -116 -47 t-126 -61z" />
<glyph unicode="&#xca;" horiz-adv-x="1511" d="M104 1350v94h1252l16 -426l-133 -12q-20 119 -56 184t-88.5 95t-120 35t-151.5 5q-150 0 -149 -82v-383q0 -25 10 -38t39 -13q51 0 95 6t78 28.5t55.5 67.5t29.5 125h125v-579h-125q-8 76 -23.5 121t-43 69.5t-68.5 32.5t-98 10q-74 -6 -74 -57v-408q0 -106 164 -106 q131 0 211.5 20.5t130 63.5t80 109.5t63.5 156.5l123 -18l-60 -451h-1265v92q195 0 194 125v969q0 164 -211 164zM534 1548l256 246l252 -246l-45 -41l-205 119l-215 -117z" />
<glyph unicode="&#xcb;" horiz-adv-x="1511" d="M104 1350v94h1252l16 -426l-133 -12q-20 119 -56 184t-88.5 95t-120 35t-151.5 5q-150 0 -149 -82v-383q0 -25 10 -38t39 -13q51 0 95 6t78 28.5t55.5 67.5t29.5 125h125v-579h-125q-8 76 -23.5 121t-43 69.5t-68.5 32.5t-98 10q-74 -6 -74 -57v-408q0 -106 164 -106 q131 0 211.5 20.5t130 63.5t80 109.5t63.5 156.5l123 -18l-60 -451h-1265v92q195 0 194 125v969q0 164 -211 164zM486 1673q0 109 112 109q109 0 109 -109q0 -106 -109 -106q-113 0 -112 106zM889 1673q0 109 113 109q104 0 104 -109q0 -106 -104 -106q-113 0 -113 106z" />
<glyph unicode="&#xcc;" horiz-adv-x="983" d="M104 1350v94h766v-94q-195 0 -194 -172v-953q0 -133 205 -133v-92h-768v92q203 0 202 133v953q0 172 -211 172zM256 1710q0 27 16.5 54.5t69.5 27.5q33 -6 70 -31.5t77.5 -62.5t89 -78t105.5 -78l-35 -57q-53 29 -110.5 52.5t-116.5 47.5q-8 2 -34.5 10.5t-56.5 23.5 t-52.5 37.5t-22.5 53.5z" />
<glyph unicode="&#xcd;" horiz-adv-x="983" d="M104 1350v94h766v-94q-195 0 -194 -172v-953q0 -133 205 -133v-92h-768v92q203 0 202 133v953q0 172 -211 172zM272 1544q51 33 101.5 76t95.5 81t83 64.5t66 26.5q51 0 65.5 -27.5t14.5 -54.5q0 -29 -20.5 -49.5t-47 -34.5t-50 -22.5t-31.5 -10.5q-57 -23 -116 -47 t-126 -61z" />
<glyph unicode="&#xce;" horiz-adv-x="983" d="M104 1350v94h766v-94q-195 0 -194 -172v-953q0 -133 205 -133v-92h-768v92q203 0 202 133v953q0 172 -211 172zM227 1548l256 246l252 -246l-45 -41l-205 119l-215 -117z" />
<glyph unicode="&#xcf;" horiz-adv-x="983" d="M104 1350v94h766v-94q-195 0 -194 -172v-953q0 -133 205 -133v-92h-768v92q203 0 202 133v953q0 172 -211 172zM181 1673q0 109 112 109q109 0 109 -109q0 -106 -109 -106q-113 0 -112 106zM584 1673q0 109 113 109q104 0 104 -109q0 -106 -104 -106q-113 0 -113 106z " />
<glyph unicode="&#xd0;" horiz-adv-x="1730" d="M104 1352v94q53 -6 102.5 -8t98.5 -2q68 0 124 2t120.5 5t151.5 6t217 3q170 0 302 -40t222 -128t137 -227t47 -336q0 -186 -40 -322.5t-130 -224.5t-234.5 -131t-353.5 -43h-757v92q63 0 103 6t61.5 25.5t29.5 55.5t8 95v398h-155v159h155v330q0 74 -10 108t-34.5 47 t-64.5 17t-100 19zM674 258q0 -51 9 -81t29.5 -44t55.5 -18t84 -4q211 0 316.5 147.5t105.5 462.5q0 311 -104.5 461.5t-352.5 150.5q-45 0 -72.5 -3t-43 -15t-21.5 -36t-6 -62v-386h327v-159h-327v-414z" />
<glyph unicode="&#xd1;" horiz-adv-x="1615" d="M43 1350v94h412l817 -875v559q0 221 -219 222v94h540v-94q-199 0 -198 -222v-1134l-74 -21l-926 975v-616q0 -240 221 -240v-92h-542v92q182 0 182 240v944q0 74 -213 74zM491 1604q25 86 83 137t120 51q57 0 90 -17.5t57.5 -37t48 -37t60.5 -17.5q33 0 64.5 23t60.5 86 l61 -43q-18 -80 -73.5 -132t-133.5 -52q-41 0 -73.5 17t-61.5 37.5t-57.5 38t-61.5 17.5q-35 0 -66.5 -30.5t-58.5 -77.5z" />
<glyph unicode="&#xd2;" d="M90 713q0 197 57.5 340t158 235t238.5 136t300 44q158 0 298 -46t244.5 -139t166 -231.5t61.5 -322.5t-58.5 -326.5t-162 -238.5t-243.5 -146.5t-306 -50.5q-156 0 -293 42t-239.5 133t-162 232.5t-59.5 338.5zM465 729q0 -139 17.5 -258t61.5 -207t120.5 -138t195.5 -50 q115 0 188.5 49t116.5 135t59.5 203t16.5 250q0 125 -16.5 242.5t-61.5 208.5t-126 146.5t-210 55.5q-119 0 -190.5 -52t-109.5 -140.5t-50 -204t-12 -240.5zM643 1710q0 27 16.5 54.5t69.5 27.5q33 -6 70 -31.5t77.5 -62.5t89 -78t105.5 -78l-35 -57q-53 29 -110.5 52.5 t-116.5 47.5q-8 2 -34.5 10.5t-56.5 23.5t-52.5 37.5t-22.5 53.5z" />
<glyph unicode="&#xd3;" d="M90 713q0 197 57.5 340t158 235t238.5 136t300 44q158 0 298 -46t244.5 -139t166 -231.5t61.5 -322.5t-58.5 -326.5t-162 -238.5t-243.5 -146.5t-306 -50.5q-156 0 -293 42t-239.5 133t-162 232.5t-59.5 338.5zM465 729q0 -139 17.5 -258t61.5 -207t120.5 -138t195.5 -50 q115 0 188.5 49t116.5 135t59.5 203t16.5 250q0 125 -16.5 242.5t-61.5 208.5t-126 146.5t-210 55.5q-119 0 -190.5 -52t-109.5 -140.5t-50 -204t-12 -240.5zM608 1544q51 33 101.5 76t95.5 81t83 64.5t66 26.5q51 0 65.5 -27.5t14.5 -54.5q0 -29 -20.5 -49.5t-47 -34.5 t-50 -22.5t-31.5 -10.5q-57 -23 -116 -47t-126 -61z" />
<glyph unicode="&#xd4;" d="M90 713q0 197 57.5 340t158 235t238.5 136t300 44q158 0 298 -46t244.5 -139t166 -231.5t61.5 -322.5t-58.5 -326.5t-162 -238.5t-243.5 -146.5t-306 -50.5q-156 0 -293 42t-239.5 133t-162 232.5t-59.5 338.5zM465 729q0 -139 17.5 -258t61.5 -207t120.5 -138t195.5 -50 q115 0 188.5 49t116.5 135t59.5 203t16.5 250q0 125 -16.5 242.5t-61.5 208.5t-126 146.5t-210 55.5q-119 0 -190.5 -52t-109.5 -140.5t-50 -204t-12 -240.5zM598 1548l256 246l252 -246l-45 -41l-205 119l-215 -117z" />
<glyph unicode="&#xd5;" d="M90 713q0 197 57.5 340t158 235t238.5 136t300 44q158 0 298 -46t244.5 -139t166 -231.5t61.5 -322.5t-58.5 -326.5t-162 -238.5t-243.5 -146.5t-306 -50.5q-156 0 -293 42t-239.5 133t-162 232.5t-59.5 338.5zM465 729q0 -139 17.5 -258t61.5 -207t120.5 -138t195.5 -50 q115 0 188.5 49t116.5 135t59.5 203t16.5 250q0 125 -16.5 242.5t-61.5 208.5t-126 146.5t-210 55.5q-119 0 -190.5 -52t-109.5 -140.5t-50 -204t-12 -240.5zM516 1604q25 86 83 137t120 51q57 0 90 -17.5t57.5 -37t48 -37t60.5 -17.5q33 0 64.5 23t60.5 86l61 -43 q-18 -80 -73.5 -132t-133.5 -52q-41 0 -73.5 17t-61.5 37.5t-57.5 38t-61.5 17.5q-35 0 -66.5 -30.5t-58.5 -77.5z" />
<glyph unicode="&#xd6;" d="M90 713q0 197 57.5 340t158 235t238.5 136t300 44q158 0 298 -46t244.5 -139t166 -231.5t61.5 -322.5t-58.5 -326.5t-162 -238.5t-243.5 -146.5t-306 -50.5q-156 0 -293 42t-239.5 133t-162 232.5t-59.5 338.5zM465 729q0 -139 17.5 -258t61.5 -207t120.5 -138t195.5 -50 q115 0 188.5 49t116.5 135t59.5 203t16.5 250q0 125 -16.5 242.5t-61.5 208.5t-126 146.5t-210 55.5q-119 0 -190.5 -52t-109.5 -140.5t-50 -204t-12 -240.5zM539 1673q0 109 112 109q109 0 109 -109q0 -106 -109 -106q-113 0 -112 106zM942 1673q0 109 113 109 q104 0 104 -109q0 -106 -104 -106q-113 0 -113 106z" />
<glyph unicode="&#xd7;" horiz-adv-x="1208" d="M188 1010l117 116l287 -282l287 289l122 -123l-288 -289l282 -285l-116 -117l-283 285l-279 -278l-122 123l276 278z" />
<glyph unicode="&#xd8;" d="M90 713q0 197 57.5 340t158 235t238.5 136t300 44q102 0 233 -28l31 78l115 -33l-33 -82q94 -39 172 -100.5t134 -145.5t87 -191.5t31 -236.5q0 -184 -58.5 -326.5t-162 -238.5t-243.5 -146.5t-306 -50.5q-119 0 -203 21l-37 -101l-112 43l32 88q-96 35 -176 93.5 t-137 144.5t-89 198.5t-32 258.5zM465 729q0 -174 26.5 -312t100.5 -227l436 1125q-41 25 -90 38t-111 13q-119 0 -190.5 -52t-109.5 -140.5t-50 -204t-12 -240.5zM690 111q82 -35 170 -35q115 0 188.5 49t116.5 135t59.5 203t16.5 250q0 150 -24.5 287t-94.5 229z" />
<glyph unicode="&#xd9;" horiz-adv-x="1636" d="M90 1350v94h764v-94q-203 0 -203 -142v-706q0 -72 12.5 -144.5t46 -131t93 -96.5t155.5 -38q190 0 273.5 103.5t83.5 306.5v676q0 172 -219 172v94h524v-94q-178 0 -178 -172v-652q0 -127 -24.5 -229t-87 -176t-172 -114t-279.5 -40q-129 0 -236.5 36t-185.5 99.5 t-121 151.5t-43 192v762q0 141 -203 142zM727 1710q0 27 16.5 54.5t69.5 27.5q33 -6 70 -31.5t77.5 -62.5t89 -78t105.5 -78l-35 -57q-53 29 -110.5 52.5t-116.5 47.5q-8 2 -34.5 10.5t-56.5 23.5t-52.5 37.5t-22.5 53.5z" />
<glyph unicode="&#xda;" horiz-adv-x="1636" d="M90 1350v94h764v-94q-203 0 -203 -142v-706q0 -72 12.5 -144.5t46 -131t93 -96.5t155.5 -38q190 0 273.5 103.5t83.5 306.5v676q0 172 -219 172v94h524v-94q-178 0 -178 -172v-652q0 -127 -24.5 -229t-87 -176t-172 -114t-279.5 -40q-129 0 -236.5 36t-185.5 99.5 t-121 151.5t-43 192v762q0 141 -203 142zM750 1544q51 33 101.5 76t95.5 81t83 64.5t66 26.5q51 0 65.5 -27.5t14.5 -54.5q0 -29 -20.5 -49.5t-47 -34.5t-50 -22.5t-31.5 -10.5q-57 -23 -116 -47t-126 -61z" />
<glyph unicode="&#xdb;" horiz-adv-x="1636" d="M90 1350v94h764v-94q-203 0 -203 -142v-706q0 -72 12.5 -144.5t46 -131t93 -96.5t155.5 -38q190 0 273.5 103.5t83.5 306.5v676q0 172 -219 172v94h524v-94q-178 0 -178 -172v-652q0 -127 -24.5 -229t-87 -176t-172 -114t-279.5 -40q-129 0 -236.5 36t-185.5 99.5 t-121 151.5t-43 192v762q0 141 -203 142zM704 1548l256 246l252 -246l-45 -41l-205 119l-215 -117z" />
<glyph unicode="&#xdc;" horiz-adv-x="1636" d="M90 1350v94h764v-94q-203 0 -203 -142v-706q0 -72 12.5 -144.5t46 -131t93 -96.5t155.5 -38q190 0 273.5 103.5t83.5 306.5v676q0 172 -219 172v94h524v-94q-178 0 -178 -172v-652q0 -127 -24.5 -229t-87 -176t-172 -114t-279.5 -40q-129 0 -236.5 36t-185.5 99.5 t-121 151.5t-43 192v762q0 141 -203 142zM607 1673q0 109 112 109q109 0 109 -109q0 -106 -109 -106q-113 0 -112 106zM1010 1673q0 109 113 109q104 0 104 -109q0 -106 -104 -106q-113 0 -113 106z" />
<glyph unicode="&#xdd;" horiz-adv-x="1437" d="M86 1350v94h727v-94q-156 0 -155 -60q0 -20 34 -76l287 -473l264 471q12 27 13 86q0 51 -170 52v94h524v-94q-117 0 -172 -74l-397 -680v-428q0 -76 210 -76v-92h-792v92q219 0 219 84v412l-356 590q-104 172 -236 172zM577 1544q51 33 101.5 76t95.5 81t83 64.5t66 26.5 q51 0 65.5 -27.5t14.5 -54.5q0 -29 -20.5 -49.5t-47 -34.5t-50 -22.5t-31.5 -10.5q-57 -23 -116 -47t-126 -61z" />
<glyph unicode="&#xde;" horiz-adv-x="1474" d="M96 1350v94h764v-94q-195 0 -194 -172v-31q10 4 32 4h29h123q551 0 551 -430q0 -84 -31 -158t-97.5 -128t-173 -86t-257.5 -32q-57 0 -101.5 5.5t-74.5 13.5v-94q0 -150 213 -150v-92h-775v92q203 2 203 141v945q0 172 -211 172zM666 446q35 -12 80 -16t96 -4 q68 0 104.5 24.5t55 66.5t22.5 97.5t4 114.5q0 80 -12 140.5t-45 100.5t-87.5 60.5t-140.5 20.5q-72 0 -77 -84v-521z" />
<glyph unicode="&#xdf;" horiz-adv-x="1284" d="M72 0v92q135 0 135 90v836q0 145 39 236.5t103.5 141.5t150.5 68.5t180 18.5q203 0 318.5 -82t115.5 -271q0 -63 -20.5 -109t-55 -80t-83 -57.5t-105.5 -39.5q68 -10 133.5 -38t116.5 -76t81.5 -116.5t30.5 -160.5q0 -135 -29.5 -226.5t-85 -147.5t-133 -80t-171.5 -24 q-246 0 -246 215q0 111 112 111q84 0 84 -80q0 -68 -38 -76q2 -27 13 -40t44 -13q70 0 99.5 98.5t29.5 296.5q0 252 -240 252v101q184 0 185 290q0 119 -31 177.5t-133 58.5q-80 0 -129 -60.5t-49 -183.5v-1122h-422z" />
<glyph unicode="&#xe0;" horiz-adv-x="1050" d="M72 182q0 82 32.5 141.5t97 102.5t163 73.5t231.5 55.5v70q0 98 -17.5 146t-89.5 48q-70 0 -120 -19.5t-52 -76.5q20 -20 21 -66q0 -94 -119 -94q-92 0 -92 109q0 51 22.5 98t70.5 82t124 55.5t184 20.5q68 0 131.5 -16.5t113.5 -51.5t80 -91t30 -136v-459q0 -66 57 -65 q25 0 64 26l43 -26q-20 -66 -87 -100t-141 -34q-63 0 -122.5 30t-80.5 95q-72 -57 -131 -91t-141 -34q-117 0 -194.5 53.5t-77.5 153.5zM278 1155q0 27 16.5 54.5t69.5 27.5q33 -6 70 -31.5t77.5 -62.5t89 -78t105.5 -78l-35 -57q-53 29 -110.5 52.5t-116.5 47.5 q-8 2 -34.5 10.5t-56.5 23.5t-52.5 37.5t-22.5 53.5zM360 238q0 -72 20.5 -106t80.5 -34q57 0 85.5 18.5t40 48.5t12.5 66.5t5 73.5v152q-123 -16 -183.5 -64.5t-60.5 -154.5z" />
<glyph unicode="&#xe1;" horiz-adv-x="1050" d="M72 182q0 82 32.5 141.5t97 102.5t163 73.5t231.5 55.5v70q0 98 -17.5 146t-89.5 48q-70 0 -120 -19.5t-52 -76.5q20 -20 21 -66q0 -94 -119 -94q-92 0 -92 109q0 51 22.5 98t70.5 82t124 55.5t184 20.5q68 0 131.5 -16.5t113.5 -51.5t80 -91t30 -136v-459q0 -66 57 -65 q25 0 64 26l43 -26q-20 -66 -87 -100t-141 -34q-63 0 -122.5 30t-80.5 95q-72 -57 -131 -91t-141 -34q-117 0 -194.5 53.5t-77.5 153.5zM313 989q51 33 101.5 76t95.5 81t83 64.5t66 26.5q51 0 65.5 -27.5t14.5 -54.5q0 -29 -20.5 -49.5t-47 -34.5t-50 -22.5t-31.5 -10.5 q-57 -23 -116 -47t-126 -61zM360 238q0 -72 20.5 -106t80.5 -34q57 0 85.5 18.5t40 48.5t12.5 66.5t5 73.5v152q-123 -16 -183.5 -64.5t-60.5 -154.5z" />
<glyph unicode="&#xe2;" horiz-adv-x="1050" d="M72 182q0 82 32.5 141.5t97 102.5t163 73.5t231.5 55.5v70q0 98 -17.5 146t-89.5 48q-70 0 -120 -19.5t-52 -76.5q20 -20 21 -66q0 -94 -119 -94q-92 0 -92 109q0 51 22.5 98t70.5 82t124 55.5t184 20.5q68 0 131.5 -16.5t113.5 -51.5t80 -91t30 -136v-459q0 -66 57 -65 q25 0 64 26l43 -26q-20 -66 -87 -100t-141 -34q-63 0 -122.5 30t-80.5 95q-72 -57 -131 -91t-141 -34q-117 0 -194.5 53.5t-77.5 153.5zM274 993l256 246l252 -246l-45 -41l-205 119l-215 -117zM360 238q0 -72 20.5 -106t80.5 -34q57 0 85.5 18.5t40 48.5t12.5 66.5t5 73.5 v152q-123 -16 -183.5 -64.5t-60.5 -154.5z" />
<glyph unicode="&#xe3;" horiz-adv-x="1050" d="M72 182q0 82 32.5 141.5t97 102.5t163 73.5t231.5 55.5v70q0 98 -17.5 146t-89.5 48q-70 0 -120 -19.5t-52 -76.5q20 -20 21 -66q0 -94 -119 -94q-92 0 -92 109q0 51 22.5 98t70.5 82t124 55.5t184 20.5q68 0 131.5 -16.5t113.5 -51.5t80 -91t30 -136v-459q0 -66 57 -65 q25 0 64 26l43 -26q-20 -66 -87 -100t-141 -34q-63 0 -122.5 30t-80.5 95q-72 -57 -131 -91t-141 -34q-117 0 -194.5 53.5t-77.5 153.5zM229 1049q25 86 83 137t120 51q57 0 90 -17.5t57.5 -37t48 -37t60.5 -17.5q33 0 64.5 23t60.5 86l61 -43q-18 -80 -73.5 -132 t-133.5 -52q-41 0 -73.5 17t-61.5 37.5t-57.5 38t-61.5 17.5q-35 0 -66.5 -30.5t-58.5 -77.5zM360 238q0 -72 20.5 -106t80.5 -34q57 0 85.5 18.5t40 48.5t12.5 66.5t5 73.5v152q-123 -16 -183.5 -64.5t-60.5 -154.5z" />
<glyph unicode="&#xe4;" horiz-adv-x="1050" d="M72 182q0 82 32.5 141.5t97 102.5t163 73.5t231.5 55.5v70q0 98 -17.5 146t-89.5 48q-70 0 -120 -19.5t-52 -76.5q20 -20 21 -66q0 -94 -119 -94q-92 0 -92 109q0 51 22.5 98t70.5 82t124 55.5t184 20.5q68 0 131.5 -16.5t113.5 -51.5t80 -91t30 -136v-459q0 -66 57 -65 q25 0 64 26l43 -26q-20 -66 -87 -100t-141 -34q-63 0 -122.5 30t-80.5 95q-72 -57 -131 -91t-141 -34q-117 0 -194.5 53.5t-77.5 153.5zM230 1118q0 109 112 109q109 0 109 -109q0 -106 -109 -106q-113 0 -112 106zM360 238q0 -72 20.5 -106t80.5 -34q57 0 85.5 18.5 t40 48.5t12.5 66.5t5 73.5v152q-123 -16 -183.5 -64.5t-60.5 -154.5zM633 1118q0 109 113 109q104 0 104 -109q0 -106 -104 -106q-113 0 -113 106z" />
<glyph unicode="&#xe5;" horiz-adv-x="1050" d="M72 182q0 82 32.5 141.5t97 102.5t163 73.5t231.5 55.5v70q0 98 -17.5 146t-89.5 48q-70 0 -120 -19.5t-52 -76.5q20 -20 21 -66q0 -94 -119 -94q-92 0 -92 109q0 51 22.5 98t70.5 82t124 55.5t184 20.5q68 0 131.5 -16.5t113.5 -51.5t80 -91t30 -136v-459q0 -66 57 -65 q25 0 64 26l43 -26q-20 -66 -87 -100t-141 -34q-63 0 -122.5 30t-80.5 95q-72 -57 -131 -91t-141 -34q-117 0 -194.5 53.5t-77.5 153.5zM268 1167q0 45 19.5 86t52 72t78 49t98.5 18t99 -18t81 -49t54.5 -72t19.5 -86q0 -47 -19.5 -89t-54.5 -73.5t-81 -50t-99 -18.5 t-98.5 18.5t-78 50t-52 73.5t-19.5 89zM360 238q0 -72 20.5 -106t80.5 -34q57 0 85.5 18.5t40 48.5t12.5 66.5t5 73.5v152q-123 -16 -183.5 -64.5t-60.5 -154.5zM387 1167q0 -59 37 -90t92 -31t92 31t37 90q0 47 -37 81t-92 34t-92 -34t-37 -81z" />
<glyph unicode="&#xe6;" horiz-adv-x="1546" d="M72 182q0 82 32.5 141.5t97 102.5t163 73.5t231.5 55.5v70q0 98 -17.5 146t-89.5 48q-70 0 -120 -19.5t-52 -76.5q20 -20 21 -66q0 -94 -119 -94q-92 0 -92 109q0 51 22.5 98t70.5 82t124 55.5t184 20.5q74 0 142.5 -19.5t120.5 -62.5q113 82 272 82q106 0 185 -30 t131.5 -82t79 -125t26.5 -156v-28.5t-2 -31.5h-563q-25 0 -25 -18q0 -74 13.5 -136.5t42 -107.5t73.5 -70.5t111 -25.5q86 0 149.5 45t112.5 114l69 -49q-121 -252 -387 -252q-129 0 -226 38t-161 116q-31 -43 -75 -71.5t-92 -47t-96 -27t-85 -8.5q-117 0 -194.5 53.5 t-77.5 153.5zM360 238q0 -72 20.5 -106t80.5 -34q57 0 85.5 18.5t40 48.5t12.5 66.5t5 73.5v152q-123 -16 -183.5 -64.5t-60.5 -154.5zM895 578q0 -12 33 -13h192q33 0 53.5 17.5t20.5 52.5q0 39 -6 73.5t-21.5 61.5t-43 42t-68.5 15q-47 0 -78 -21.5t-49.5 -56t-25.5 -79.5 t-7 -92z" />
<glyph unicode="&#xe7;" horiz-adv-x="925" d="M72 424q0 242 136 373t384 131q53 0 105.5 -15.5t93 -44t65.5 -67.5t25 -88q0 -47 -39 -82t-88 -35q-102 0 -103 109q0 8 4 28.5t4 36.5q0 35 -34.5 50.5t-71.5 15.5q-57 0 -92 -32t-54.5 -81t-25.5 -109.5t-6 -117.5q0 -80 9 -151t34.5 -123t69.5 -82.5t112 -30.5 q131 0 219 131l80 -43q-25 -61 -66.5 -106.5t-94 -74t-110 -42t-112.5 -13.5v-20q98 -4 135 -50.5t37 -99.5q0 -37 -20.5 -66.5t-54 -51t-80 -33t-97.5 -11.5v70q72 6 104.5 31.5t32.5 60.5q0 29 -13 46.5t-33.5 25.5t-45 10t-45.5 2v92q-162 25 -263 141.5t-101 315.5z" />
<glyph unicode="&#xe8;" horiz-adv-x="1011" d="M61 432q0 119 36 211t99.5 155.5t148.5 96.5t181 33q106 0 185.5 -30t131.5 -82t78.5 -125t26.5 -156v-28.5t-2 -31.5h-563q-25 0 -25 -18q0 -74 13.5 -136.5t42 -107.5t73.5 -70.5t111 -25.5q86 0 149.5 45t112.5 114l70 -49q-121 -252 -387 -252q-109 0 -198 29 t-151.5 86t-97.5 142t-35 200zM301 1155q0 27 16.5 54.5t69.5 27.5q33 -6 70 -31.5t77.5 -62.5t89 -78t105.5 -78l-35 -57q-53 29 -110.5 52.5t-116.5 47.5q-8 2 -34.5 10.5t-56.5 23.5t-52.5 37.5t-22.5 53.5zM358 578q0 -12 33 -13h193q33 0 53 17.5t20 52.5q0 39 -6 73.5 t-21.5 61.5t-43 42t-68.5 15q-47 0 -77.5 -21.5t-49 -56t-26 -79.5t-7.5 -92z" />
<glyph unicode="&#xe9;" horiz-adv-x="1011" d="M61 432q0 119 36 211t99.5 155.5t148.5 96.5t181 33q106 0 185.5 -30t131.5 -82t78.5 -125t26.5 -156v-28.5t-2 -31.5h-563q-25 0 -25 -18q0 -74 13.5 -136.5t42 -107.5t73.5 -70.5t111 -25.5q86 0 149.5 45t112.5 114l70 -49q-121 -252 -387 -252q-109 0 -198 29 t-151.5 86t-97.5 142t-35 200zM295 989q51 33 101.5 76t95.5 81t83 64.5t66 26.5q51 0 65.5 -27.5t14.5 -54.5q0 -29 -20.5 -49.5t-47 -34.5t-50 -22.5t-31.5 -10.5q-57 -23 -116 -47t-126 -61zM358 578q0 -12 33 -13h193q33 0 53 17.5t20 52.5q0 39 -6 73.5t-21.5 61.5 t-43 42t-68.5 15q-47 0 -77.5 -21.5t-49 -56t-26 -79.5t-7.5 -92z" />
<glyph unicode="&#xea;" horiz-adv-x="1011" d="M61 432q0 119 36 211t99.5 155.5t148.5 96.5t181 33q106 0 185.5 -30t131.5 -82t78.5 -125t26.5 -156v-28.5t-2 -31.5h-563q-25 0 -25 -18q0 -74 13.5 -136.5t42 -107.5t73.5 -70.5t111 -25.5q86 0 149.5 45t112.5 114l70 -49q-121 -252 -387 -252q-109 0 -198 29 t-151.5 86t-97.5 142t-35 200zM264 993l256 246l252 -246l-45 -41l-205 119l-215 -117zM358 578q0 -12 33 -13h193q33 0 53 17.5t20 52.5q0 39 -6 73.5t-21.5 61.5t-43 42t-68.5 15q-47 0 -77.5 -21.5t-49 -56t-26 -79.5t-7.5 -92z" />
<glyph unicode="&#xeb;" horiz-adv-x="1011" d="M61 432q0 119 36 211t99.5 155.5t148.5 96.5t181 33q106 0 185.5 -30t131.5 -82t78.5 -125t26.5 -156v-28.5t-2 -31.5h-563q-25 0 -25 -18q0 -74 13.5 -136.5t42 -107.5t73.5 -70.5t111 -25.5q86 0 149.5 45t112.5 114l70 -49q-121 -252 -387 -252q-109 0 -198 29 t-151.5 86t-97.5 142t-35 200zM203 1118q0 109 112 109q109 0 109 -109q0 -106 -109 -106q-113 0 -112 106zM358 578q0 -12 33 -13h193q33 0 53 17.5t20 52.5q0 39 -6 73.5t-21.5 61.5t-43 42t-68.5 15q-47 0 -77.5 -21.5t-49 -56t-26 -79.5t-7.5 -92zM606 1118 q0 109 113 109q104 0 104 -109q0 -106 -104 -106q-113 0 -113 106z" />
<glyph unicode="&#xec;" horiz-adv-x="727" d="M72 0v92q143 0 143 115v418q0 156 -127 155v80l414 72v-733q0 -106 162 -107v-92h-592zM92 1155q0 27 16.5 54.5t69.5 27.5q33 -6 70 -31.5t77.5 -62.5t89 -78t105.5 -78l-35 -57q-53 29 -110.5 52.5t-116.5 47.5q-8 2 -34.5 10.5t-56.5 23.5t-52.5 37.5t-22.5 53.5z" />
<glyph unicode="&#xed;" horiz-adv-x="737" d="M82 0v92q143 0 143 115v418q0 156 -127 155v80l414 72v-733q0 -106 162 -107v-92h-592zM98 989q51 33 101.5 76t95.5 81t83 64.5t66 26.5q51 0 65.5 -27.5t14.5 -54.5q0 -29 -20.5 -49.5t-47 -34.5t-50 -22.5t-31.5 -10.5q-57 -23 -116 -47t-126 -61z" />
<glyph unicode="&#xee;" horiz-adv-x="745" d="M78 993l256 246l252 -246l-45 -41l-205 119l-215 -117zM90 0v92q143 0 143 115v418q0 156 -127 155v80l414 72v-733q0 -106 162 -107v-92h-592z" />
<glyph unicode="&#xef;" horiz-adv-x="712" d="M23 1118q0 109 112 109q109 0 109 -109q0 -106 -109 -106q-113 0 -112 106zM82 0v92q143 0 143 115v418q0 156 -127 155v80l414 72v-733q0 -106 162 -107v-92h-592zM426 1118q0 109 113 109q104 0 104 -109q0 -106 -104 -106q-113 0 -113 106z" />
<glyph unicode="&#xf0;" horiz-adv-x="1077" d="M61 483q0 106 39 189.5t99.5 140.5t134.5 86t143 29q57 0 108.5 -9.5t98.5 -37.5q-35 63 -76 119.5t-86 107.5l-164 -125l-71 98l155 119q-92 102 -194 189l78 100q66 -47 126 -94t119 -97l224 168l65 -96l-198 -151q80 -78 144 -159t111.5 -173t73 -198.5t25.5 -231.5 q0 -119 -41 -211t-107.5 -155.5t-152.5 -96.5t-176 -33q-102 0 -190.5 33t-152 97.5t-99.5 162.5t-36 229zM367 520q0 -68 4 -147.5t21.5 -149t53 -117t101.5 -47.5q57 0 91 35t50.5 84t20.5 101.5t4 87.5q0 68 -4 147.5t-20.5 149t-51.5 116.5t-98 47q-61 0 -95 -35.5 t-51.5 -85t-21.5 -101.5t-4 -85z" />
<glyph unicode="&#xf1;" horiz-adv-x="1368" d="M72 772v82l405 76q16 -16 17 -58v-79q53 66 133 98.5t172 32.5q70 0 134 -18.5t114.5 -56.5t81 -94.5t30.5 -129.5v-467q0 -66 137 -66v-92h-551v92q70 0 98.5 19.5t28.5 54.5v346q0 137 -43 206.5t-141 69.5t-142 -61t-44 -184v-377q0 -35 32.5 -54.5t110.5 -19.5v-92 h-549v92q121 0 121 82v539q0 59 -102 59h-43zM328 1049q25 86 83 137t120 51q57 0 90 -17.5t57.5 -37t48 -37t60.5 -17.5q33 0 64.5 23t60.5 86l61 -43q-18 -80 -73.5 -132t-133.5 -52q-41 0 -73.5 17t-61.5 37.5t-57.5 38t-61.5 17.5q-35 0 -66.5 -30.5t-58.5 -77.5z" />
<glyph unicode="&#xf2;" horiz-adv-x="1118" d="M61 432q0 139 43 234.5t114 154t162 83t187 24.5q98 0 187.5 -33t157 -93.5t106.5 -147t39 -197.5q0 -129 -44 -223.5t-115 -155t-160 -89t-179 -28.5q-102 0 -193.5 33t-159 93t-106.5 147.5t-39 197.5zM336 1155q0 27 16.5 54.5t69.5 27.5q33 -6 70 -31.5t77.5 -62.5 t89 -78t105.5 -78l-35 -57q-53 29 -110.5 52.5t-116.5 47.5q-8 2 -34.5 10.5t-56.5 23.5t-52.5 37.5t-22.5 53.5zM367 520q0 -68 3 -147.5t22.5 -149t60.5 -117t114 -47.5q68 0 106 35t56.5 84t21.5 101.5t3 87.5q0 68 -4.5 147.5t-22.5 149t-58 116.5t-110 47t-108.5 -35.5 t-57 -85t-22.5 -101.5t-4 -85z" />
<glyph unicode="&#xf3;" horiz-adv-x="1118" d="M61 432q0 139 43 234.5t114 154t162 83t187 24.5q98 0 187.5 -33t157 -93.5t106.5 -147t39 -197.5q0 -129 -44 -223.5t-115 -155t-160 -89t-179 -28.5q-102 0 -193.5 33t-159 93t-106.5 147.5t-39 197.5zM315 989q51 33 101.5 76t95.5 81t83 64.5t66 26.5 q51 0 65.5 -27.5t14.5 -54.5q0 -29 -20.5 -49.5t-47 -34.5t-50 -22.5t-31.5 -10.5q-57 -23 -116 -47t-126 -61zM367 520q0 -68 3 -147.5t22.5 -149t60.5 -117t114 -47.5q68 0 106 35t56.5 84t21.5 101.5t3 87.5q0 68 -4.5 147.5t-22.5 149t-58 116.5t-110 47t-108.5 -35.5 t-57 -85t-22.5 -101.5t-4 -85z" />
<glyph unicode="&#xf4;" horiz-adv-x="1118" d="M61 432q0 139 43 234.5t114 154t162 83t187 24.5q98 0 187.5 -33t157 -93.5t106.5 -147t39 -197.5q0 -129 -44 -223.5t-115 -155t-160 -89t-179 -28.5q-102 0 -193.5 33t-159 93t-106.5 147.5t-39 197.5zM299 993l256 246l252 -246l-45 -41l-205 119l-215 -117zM367 520 q0 -68 3 -147.5t22.5 -149t60.5 -117t114 -47.5q68 0 106 35t56.5 84t21.5 101.5t3 87.5q0 68 -4.5 147.5t-22.5 149t-58 116.5t-110 47t-108.5 -35.5t-57 -85t-22.5 -101.5t-4 -85z" />
<glyph unicode="&#xf5;" horiz-adv-x="1118" d="M61 432q0 139 43 234.5t114 154t162 83t187 24.5q98 0 187.5 -33t157 -93.5t106.5 -147t39 -197.5q0 -129 -44 -223.5t-115 -155t-160 -89t-179 -28.5q-102 0 -193.5 33t-159 93t-106.5 147.5t-39 197.5zM219 1049q25 86 83 137t120 51q57 0 90 -17.5t57.5 -37t48 -37 t60.5 -17.5q33 0 64.5 23t60.5 86l61 -43q-18 -80 -73.5 -132t-133.5 -52q-41 0 -73.5 17t-61.5 37.5t-57.5 38t-61.5 17.5q-35 0 -66.5 -30.5t-58.5 -77.5zM367 520q0 -68 3 -147.5t22.5 -149t60.5 -117t114 -47.5q68 0 106 35t56.5 84t21.5 101.5t3 87.5q0 68 -4.5 147.5 t-22.5 149t-58 116.5t-110 47t-108.5 -35.5t-57 -85t-22.5 -101.5t-4 -85z" />
<glyph unicode="&#xf6;" horiz-adv-x="1118" d="M61 432q0 139 43 234.5t114 154t162 83t187 24.5q98 0 187.5 -33t157 -93.5t106.5 -147t39 -197.5q0 -129 -44 -223.5t-115 -155t-160 -89t-179 -28.5q-102 0 -193.5 33t-159 93t-106.5 147.5t-39 197.5zM230 1118q0 109 112 109q109 0 109 -109q0 -106 -109 -106 q-113 0 -112 106zM367 520q0 -68 3 -147.5t22.5 -149t60.5 -117t114 -47.5q68 0 106 35t56.5 84t21.5 101.5t3 87.5q0 68 -4.5 147.5t-22.5 149t-58 116.5t-110 47t-108.5 -35.5t-57 -85t-22.5 -101.5t-4 -85zM633 1118q0 109 113 109q104 0 104 -109q0 -106 -104 -106 q-113 0 -113 106z" />
<glyph unicode="&#xf7;" horiz-adv-x="1171" d="M98 639v164h977v-164h-977zM428 360q0 152 160 152q147 0 147 -152q0 -150 -147 -149q-160 0 -160 149zM428 1069q0 150 160 150q147 0 147 -150q0 -152 -147 -151q-160 0 -160 151z" />
<glyph unicode="&#xf8;" horiz-adv-x="1118" d="M61 432q0 139 43 234.5t114 154t162 83t187 24.5q100 0 168 -27l53 96l105 -43l-53 -98q98 -59 157.5 -160.5t59.5 -238.5q0 -129 -44 -223.5t-115 -155t-160 -89t-179 -28.5q-113 0 -190 33l-62 -113l-96 56l57 104q-94 59 -150.5 157.5t-56.5 233.5zM367 520 q0 -59 2 -128.5t16 -135.5l285 524q-23 23 -49.5 35t-61.5 12q-70 0 -108.5 -35.5t-57 -85t-22.5 -101.5t-4 -85zM438 121q23 -29 54.5 -45.5t74.5 -16.5q68 0 106 35t56.5 84t21.5 101.5t3 87.5q0 66 -4.5 142.5t-20.5 145.5z" />
<glyph unicode="&#xf9;" horiz-adv-x="1290" d="M31 877l434 28v-555q0 -47 3 -91t17.5 -78t43 -53t77.5 -19q78 0 124 54t77 152v422q0 57 -152 58l-12 82l449 26v-721q0 -57 143 -65l22 -84l-430 -43q-8 14 -10 31.5t-2 39.5v33q-23 -29 -44 -50t-51 -36.5t-71 -24t-98 -8.5q-84 0 -152.5 16.5t-118 55.5t-76 103.5 t-26.5 160.5v426q0 57 -135 58zM381 1155q0 27 16.5 54.5t69.5 27.5q33 -6 70 -31.5t77.5 -62.5t89 -78t105.5 -78l-35 -57q-53 29 -110.5 52.5t-116.5 47.5q-8 2 -34.5 10.5t-56.5 23.5t-52.5 37.5t-22.5 53.5z" />
<glyph unicode="&#xfa;" horiz-adv-x="1290" d="M31 877l434 28v-555q0 -47 3 -91t17.5 -78t43 -53t77.5 -19q78 0 124 54t77 152v422q0 57 -152 58l-12 82l449 26v-721q0 -57 143 -65l22 -84l-430 -43q-8 14 -10 31.5t-2 39.5v33q-23 -29 -44 -50t-51 -36.5t-71 -24t-98 -8.5q-84 0 -152.5 16.5t-118 55.5t-76 103.5 t-26.5 160.5v426q0 57 -135 58zM410 989q51 33 101.5 76t95.5 81t83 64.5t66 26.5q51 0 65.5 -27.5t14.5 -54.5q0 -29 -20.5 -49.5t-47 -34.5t-50 -22.5t-31.5 -10.5q-57 -23 -116 -47t-126 -61z" />
<glyph unicode="&#xfb;" horiz-adv-x="1290" d="M31 877l434 28v-555q0 -47 3 -91t17.5 -78t43 -53t77.5 -19q78 0 124 54t77 152v422q0 57 -152 58l-12 82l449 26v-721q0 -57 143 -65l22 -84l-430 -43q-8 14 -10 31.5t-2 39.5v33q-23 -29 -44 -50t-51 -36.5t-71 -24t-98 -8.5q-84 0 -152.5 16.5t-118 55.5t-76 103.5 t-26.5 160.5v426q0 57 -135 58zM342 993l256 246l252 -246l-45 -41l-205 119l-215 -117z" />
<glyph unicode="&#xfc;" horiz-adv-x="1290" d="M31 877l434 28v-555q0 -47 3 -91t17.5 -78t43 -53t77.5 -19q78 0 124 54t77 152v422q0 57 -152 58l-12 82l449 26v-721q0 -57 143 -65l22 -84l-430 -43q-8 14 -10 31.5t-2 39.5v33q-23 -29 -44 -50t-51 -36.5t-71 -24t-98 -8.5q-84 0 -152.5 16.5t-118 55.5t-76 103.5 t-26.5 160.5v426q0 57 -135 58zM277 1118q0 109 112 109q109 0 109 -109q0 -106 -109 -106q-113 0 -112 106zM680 1118q0 109 113 109q104 0 104 -109q0 -106 -104 -106q-113 0 -113 106z" />
<glyph unicode="&#xfd;" horiz-adv-x="1026" d="M84 795v92h545v-92h-56q-61 0 -65 -29q0 -20 2 -38.5t12 -37.5l201 -430l151 385q23 61 23 100q0 49 -135 50v92h387v-92q-98 0 -123 -64l-244 -614q-41 -102 -83 -190.5t-90 -154t-102 -103.5t-122 -38q-139 0 -139 117q0 119 94 119q37 0 53.5 -17.5t23.5 -39t13 -39 t23 -17.5q23 0 57.5 40t75.5 147l-381 782q-35 72 -121 72zM358 989q51 33 101.5 76t95.5 81t83 64.5t66 26.5q51 0 65.5 -27.5t14.5 -54.5q0 -29 -20.5 -49.5t-47 -34.5t-50 -22.5t-31.5 -10.5q-57 -23 -116 -47t-126 -61z" />
<glyph unicode="&#xfe;" horiz-adv-x="1183" d="M29 1333v84l422 70v-690q47 72 107 101.5t132 29.5q109 0 187.5 -37t131 -100.5t77 -145.5t24.5 -172q0 -125 -30.5 -218t-86 -155.5t-132.5 -93.5t-169 -31q-94 0 -144 18.5t-91 51.5q2 -10 2 -24.5v-30.5v-234q0 -57 170 -57v-84h-578v84q115 0 115 49v1430 q0 156 -137 155zM451 377q8 -59 17 -110.5t30.5 -90.5t58.5 -61.5t102 -22.5q59 0 92 29t49.5 75t19.5 106t3 122q0 63 -5 127.5t-25.5 117t-60.5 86t-107 33.5q-61 0 -97 -38.5t-52.5 -89t-20.5 -100.5t-4 -73v-110z" />
<glyph unicode="&#xff;" horiz-adv-x="1026" d="M-4 795v92h545v-92h-56q-61 0 -65 -29q0 -20 2 -38.5t12 -37.5l201 -430l151 385q23 61 23 100q0 49 -135 50v92h387v-92q-98 0 -123 -64l-244 -614q-41 -102 -83 -190.5t-90 -154t-102 -103.5t-122 -38q-139 0 -139 117q0 119 94 119q37 0 53.5 -17.5t23.5 -39t13 -39 t23 -17.5q23 0 57.5 40t75.5 147l-381 782q-35 72 -121 72zM238 1118q0 109 112 109q109 0 109 -109q0 -106 -109 -106q-113 0 -112 106zM641 1118q0 109 113 109q104 0 104 -109q0 -106 -104 -106q-113 0 -113 106z" />
<glyph unicode="&#x152;" horiz-adv-x="2420" d="M90 713q0 197 57.5 340t158 235t238.5 136t300 44q115 0 207 -24h1208l16 -426l-133 -12q-20 119 -56 184t-88 95t-120 35t-152 5q-150 0 -149 -82v-383q0 -25 10 -38t39 -13q51 0 95 6t78 28.5t55.5 67.5t29.5 125h125v-579h-125q-8 76 -23.5 121t-43 69.5t-68.5 32.5 t-98 10q-74 -6 -74 -57v-408q0 -106 164 -106q131 0 212 20.5t130 63.5t79.5 109.5t63.5 156.5l123 -18l-59 -451h-1213q-92 -33 -233 -33q-156 0 -293 42t-239.5 133t-162 232.5t-59.5 338.5zM465 729q0 -139 17.5 -258t61.5 -207t120.5 -138t195.5 -50q115 0 188.5 49 t116.5 135t59.5 203t16.5 250q0 125 -16.5 242.5t-61.5 208.5t-126 146.5t-210 55.5q-119 0 -190.5 -52t-109.5 -140.5t-50 -204t-12 -240.5z" />
<glyph unicode="&#x153;" horiz-adv-x="1693" d="M61 432q0 139 43 234.5t114 154t162 83t187 24.5q98 0 182.5 -33t145.5 -92q59 59 138 92t177 33q106 0 185.5 -30t131.5 -82t78.5 -125t26.5 -156v-28.5t-2 -31.5h-563q-25 0 -25 -18q0 -74 13.5 -136.5t42 -107.5t74 -70.5t110.5 -25.5q86 0 149.5 45t112.5 114l70 -49 q-121 -252 -387 -252q-217 0 -336 111q-66 -66 -153 -95.5t-179 -29.5q-109 0 -201 33t-157.5 93t-102.5 147.5t-37 197.5zM367 520q0 -68 3 -147.5t22.5 -149t60.5 -117t114 -47.5q68 0 106 35t56.5 84t21.5 101.5t3 87.5q0 68 -4.5 147.5t-22.5 149t-58 116.5t-110 47 t-108.5 -35.5t-57 -85t-22.5 -101.5t-4 -85zM1042 578q0 -12 33 -13h193q33 0 53 17.5t20 52.5q0 39 -6 73.5t-21.5 61.5t-43 42t-68.5 15q-47 0 -77.5 -21.5t-49 -56t-26 -79.5t-7.5 -92z" />
<glyph unicode="&#x178;" horiz-adv-x="1437" d="M-35 1350v94h727v-94q-156 0 -155 -60q0 -20 34 -76l287 -473l264 471q12 27 13 86q0 51 -170 52v94h524v-94q-117 0 -172 -74l-397 -680v-428q0 -76 210 -76v-92h-792v92q219 0 219 84v412l-356 590q-104 172 -236 172zM471 1673q0 109 112 109q109 0 109 -109 q0 -106 -109 -106q-113 0 -112 106zM874 1673q0 109 113 109q104 0 104 -109q0 -106 -104 -106q-113 0 -113 106z" />
<glyph unicode="&#x2c6;" horiz-adv-x="684" d="M88 993l256 246l252 -246l-45 -41l-205 119l-215 -117z" />
<glyph unicode="&#x2dc;" horiz-adv-x="737" d="M45 1049q25 86 83 137t120 51q57 0 90 -17.5t57.5 -37t48 -37t60.5 -17.5q33 0 64.5 23t60.5 86l61 -43q-18 -80 -73.5 -132t-133.5 -52q-41 0 -73.5 17t-61.5 37.5t-57.5 38t-61.5 17.5q-35 0 -66.5 -30.5t-58.5 -77.5z" />
<glyph unicode="&#x2000;" horiz-adv-x="912" />
<glyph unicode="&#x2001;" horiz-adv-x="1825" />
<glyph unicode="&#x2002;" horiz-adv-x="912" />
<glyph unicode="&#x2003;" horiz-adv-x="1825" />
<glyph unicode="&#x2004;" horiz-adv-x="608" />
<glyph unicode="&#x2005;" horiz-adv-x="456" />
<glyph unicode="&#x2006;" horiz-adv-x="304" />
<glyph unicode="&#x2007;" horiz-adv-x="304" />
<glyph unicode="&#x2008;" horiz-adv-x="228" />
<glyph unicode="&#x2009;" horiz-adv-x="365" />
<glyph unicode="&#x200a;" horiz-adv-x="101" />
<glyph unicode="&#x2010;" horiz-adv-x="669" d="M72 475v156h526v-156h-526z" />
<glyph unicode="&#x2011;" horiz-adv-x="669" d="M72 475v156h526v-156h-526z" />
<glyph unicode="&#x2012;" horiz-adv-x="669" d="M72 475v156h526v-156h-526z" />
<glyph unicode="&#x2013;" horiz-adv-x="968" d="M72 475v156h823v-156h-823z" />
<glyph unicode="&#x2014;" horiz-adv-x="1611" d="M72 475v156h1466v-156h-1466z" />
<glyph unicode="&#x2018;" horiz-adv-x="491" d="M72 1090q0 135 76.5 230t224.5 171l45 -68q-72 -47 -111 -83.5t-56.5 -67.5t-20.5 -54.5t-3 -41.5q0 -33 37 -33q133 0 133 -119q0 -152 -143 -152q-182 0 -182 218z" />
<glyph unicode="&#x2019;" horiz-adv-x="491" d="M72 940q72 45 110.5 82t57 67.5t21.5 53t3 41.5q0 37 -37 37q-131 0 -131 116q0 152 140 152q182 0 182 -215q0 -135 -76 -231.5t-223 -174.5z" />
<glyph unicode="&#x201a;" horiz-adv-x="491" d="M72 -272q72 45 110.5 82.5t57 67.5t21.5 53.5t3 41.5q0 35 -37 35q-131 0 -131 119q0 152 140 152q182 0 182 -218q0 -135 -76 -230t-223 -173z" />
<glyph unicode="&#x201c;" horiz-adv-x="854" d="M72 1090q0 135 77.5 230t225.5 171l45 -68q-72 -47 -111 -83.5t-56 -67.5t-20.5 -54.5t-3.5 -41.5q0 -33 35 -33q133 0 133 -119q0 -152 -143 -152q-182 0 -182 218zM436 1090q0 135 76 230t223 171l47 -68q-72 -47 -110.5 -83.5t-56 -67.5t-20.5 -54.5t-3 -41.5 q0 -33 35 -33q133 0 133 -119q0 -152 -142 -152q-182 0 -182 218z" />
<glyph unicode="&#x201d;" horiz-adv-x="854" d="M72 940q72 45 110.5 82t57 67.5t21.5 53t3 41.5q0 37 -35 37q-133 0 -133 116q0 152 142 152q182 0 182 -215q0 -135 -76 -231.5t-223 -174.5zM436 940q70 45 109 81t57.5 65.5t21.5 52t3 41.5q0 41 -35 41q-135 0 -135 116q0 152 143 152q182 0 182 -215 q0 -135 -76.5 -231.5t-224.5 -174.5z" />
<glyph unicode="&#x201e;" horiz-adv-x="854" d="M72 -272q72 45 110.5 82.5t57 67.5t21.5 53.5t3 41.5q0 35 -35 35q-133 0 -133 119q0 152 142 152q182 0 182 -218q0 -135 -76 -230t-223 -173zM436 -272q70 45 109 81.5t57.5 66.5t21.5 52.5t3 40.5q0 39 -35 39q-135 0 -135 119q0 152 143 152q182 0 182 -218 q0 -135 -76.5 -230t-224.5 -173z" />
<glyph unicode="&#x2022;" horiz-adv-x="645" d="M72 674q0 244 256 244q243 0 243 -244q0 -242 -243 -242q-256 0 -256 242z" />
<glyph unicode="&#x2026;" horiz-adv-x="2783" d="M72 119q0 152 157 151q152 1 152 -151q0 -150 -152 -150q-158 0 -157 150zM1239 119q0 152 158 151q151 1 151 -151q0 -150 -151 -150q-158 0 -158 150zM2402 119q0 151 160 151q150 0 150 -151q0 -150 -150 -150q-160 0 -160 150z" />
<glyph unicode="&#x202f;" horiz-adv-x="365" />
<glyph unicode="&#x2039;" horiz-adv-x="720" d="M100 539l404 370l51 -61l-225 -309l225 -316l-53 -55z" />
<glyph unicode="&#x203a;" horiz-adv-x="690" d="M100 229l226 310l-226 315l54 55l399 -370l-401 -371z" />
<glyph unicode="&#x205f;" horiz-adv-x="456" />
<glyph unicode="&#x20ac;" horiz-adv-x="1398" d="M31 498l61 125h107v116h-168l61 123h117q27 129 89 237.5t150.5 186.5t197 121t226.5 43q96 0 182.5 -15.5t151 -46t101 -78.5t36.5 -116q0 -47 -38.5 -82t-87.5 -35q-100 0 -101 109q0 10 4 31.5t4 33.5q0 31 -18.5 49.5t-50 27.5t-76.5 11t-98 2q-78 0 -139.5 -38.5 t-106.5 -105.5t-72.5 -154t-38.5 -181h520l-40 -123h-482q0 -29 1 -57.5t5 -58.5h437l-41 -125h-373q20 -92 52 -168t77 -128t104.5 -81t137.5 -29q98 0 177 31t150 110l86 -73q-170 -190 -463 -191q-274 0 -438 140.5t-217 388.5h-186z" />
<glyph unicode="&#x2122;" horiz-adv-x="1662" d="M72 1204l32 232q31 -6 53.5 -8.5t39.5 -2.5h385q18 0 44.5 2.5t57.5 8.5v-234l-70 -4q-10 141 -120 141q-23 0 -23 -8v-411q0 -59 96 -60v-69h-366v69q98 0 98 60v411q0 12 -23 12q-100 0 -133 -159zM776 1354v71h264l166 -409l156 409h219v-71q-74 0 -74 -33v-410 q0 -51 82 -51v-69h-297v69q70 0 70 45v285l-150 -399h-94l-170 407v-280q0 -57 90 -58v-69h-260v69q88 0 88 64v397q0 33 -90 33z" />
<glyph unicode="&#x25fc;" horiz-adv-x="890" d="M0 0v891h891v-891h-891z" />
<glyph unicode="&#xfb01;" horiz-adv-x="1394" d="M16 772v115h174q18 0 19 43q0 176 52 284.5t136 168t190.5 80t215.5 20.5q43 0 100.5 -11.5t108.5 -43t86 -89t35 -147.5q0 -23 -7.5 -48.5t-23 -46t-38 -33.5t-52.5 -13q-51 0 -87 23.5t-36 70.5q0 41 11 68.5t44 43.5q-16 61 -67.5 85t-122.5 24q-70 0 -119 -33 t-80 -82t-45 -107.5t-14 -109.5v-104q0 -43 18 -43h649v-688q0 -106 160 -107v-92h-549v92q70 0 85 29t15 86v418q0 156 -112 155h-248q-18 0 -18 -10v-588q0 -45 26.5 -67.5t118.5 -22.5v-92h-569v92q137 0 137 90v580q0 10 -10 10h-183z" />
<glyph unicode="&#xfb02;" horiz-adv-x="1495" d="M16 772v115h177q18 0 18 43q0 156 32.5 262t106.5 170.5t193 92.5t291 28h430v-1317q0 -74 159 -74v-92h-592v92q145 0 146 82v1069q0 59 -32 91t-124 32h-121q-72 0 -112.5 -28.5t-60 -76t-24.5 -106.5t-5 -121v-104q0 -43 18 -43h322l-13 -107h-309q-18 0 -18 -10v-588 q0 -90 186 -90v-92h-610v92q137 0 137 90v580q0 10 -10 10h-185z" />
<glyph unicode="&#xfb03;" horiz-adv-x="2129" d="M16 772v115h179q16 0 16 43q0 285 128 419t347 134q92 0 137 -40t45 -114q0 -47 -31.5 -76.5t-74.5 -29.5q-90 0 -90 75q0 12 4 25.5t8 24.5q-16 18 -47 18q-43 0 -70.5 -38t-43 -90t-20.5 -109.5t-5 -94.5v-104q0 -43 20 -43h408q20 0 20 43q0 160 55.5 266.5t142.5 170 t196.5 90t220.5 26.5q43 0 100 -11.5t107.5 -43t86 -89t35.5 -147.5q0 -23 -8 -48.5t-23.5 -46t-39 -33.5t-52.5 -13q-49 0 -85.5 24.5t-36.5 77.5q0 39 11 64.5t46 39.5q-16 61 -78.5 85t-134.5 24q-70 0 -118 -33t-78.5 -82t-45 -107.5t-14.5 -109.5v-104q0 -43 16 -43 h649v-688q0 -106 160 -107v-92h-528v92q72 0 97.5 29t25.5 86v418q0 156 -115 155h-289q-16 0 -16 -10v-588q0 -45 36 -67.5t128 -22.5v-92h-588v92q137 0 137 90v590q0 10 -12 10h-416q-20 0 -20 -10v-590q0 -90 186 -90v-92h-608v92q135 0 135 90v580q0 10 -8 10h-187z " />
<glyph unicode="&#xfb04;" horiz-adv-x="2244" d="M16 772v115h177q16 0 16 43q0 121 32.5 222t94 175t149.5 115t199 41q92 0 137 -40t45 -114q0 -47 -31.5 -76.5t-74.5 -29.5q-90 0 -90 75q0 12 4 25.5t8 24.5q-16 18 -47 18q-43 0 -70.5 -38t-43 -90t-20.5 -109.5t-5 -94.5v-104q0 -43 20 -43h426q20 0 21 43 q0 156 31.5 262t105.5 170.5t192.5 92.5t290.5 28h430v-1317q0 -74 160 -74v-92h-592v92q145 0 145 82v1069q0 59 -30.5 91t-122.5 32h-123q-72 0 -112 -28.5t-60.5 -76t-24.5 -106.5t-4 -121v-104q0 -43 17 -43h321l-10 -107h-311q-16 0 -17 -10v-588q0 -90 185 -90v-92 h-609v92q137 0 138 90v588q0 10 -13 10h-434q-20 0 -20 -10v-588q0 -90 186 -90v-92h-608v92q135 0 135 90v580q0 10 -8 10h-185z" />
</font>
</defs>
</svg>
