<svg id="Layer_2" data-name="Layer 2" xmlns="http://www.w3.org/2000/svg" width="409.88" height="171" viewBox="0 0 409.88 171">
  <g id="Layer_1" data-name="Layer 1">
    <g id="Group_3" data-name="Group 3">
      <g id="_404" data-name=" 404">
        <g id="Group_1758" data-name="Group 1758">
          <path id="Path_9616" data-name="Path 9616" d="M234.16,114.35H194.31v-18L234.16,49h19.07V97.38h9.88v17h-9.88V129.1H234.16Zm0-17V72.6L213.1,97.38Z" fill="#016ba6"/>
          <path id="Path_9617" data-name="Path 9617" d="M269.93,89.38q0-22.45,8.09-31.42t24.62-9a36.76,36.76,0,0,1,13.05,2,24.32,24.32,0,0,1,8.33,5.1,27.09,27.09,0,0,1,5.07,6.61,34.1,34.1,0,0,1,3,8.08,75.39,75.39,0,0,1,2.21,18.37q0,21.44-7.25,31.37t-25,9.93q-9.93,0-16.06-3.17A26,26,0,0,1,276,118a34.79,34.79,0,0,1-4.43-11.89,81.11,81.11,0,0,1-1.64-16.73Zm21.7.05q0,15,2.66,20.55t7.71,5.5a8.09,8.09,0,0,0,5.77-2.33q2.44-2.34,3.6-7.39T312.52,90q0-15.67-2.66-21.08t-8-5.4q-5.43,0-7.84,5.51T291.63,89.43Z" fill="#016ba6"/>
          <path id="Path_9618" data-name="Path 9618" d="M380.9,114.35H341v-18L380.9,49H400V97.38h9.88v17H400V129.1H380.9Zm0-17V72.6L359.84,97.38Z" fill="#016ba6"/>
        </g>
      </g>
      <g id="Group_2" data-name="Group 2">
        <circle id="Ellipse_1" data-name="Ellipse 1" cx="85.5" cy="85.5" r="85.5" fill="#016ba6"/>
        <circle id="Ellipse_2" data-name="Ellipse 2" cx="66.5" cy="66.5" r="66.5" transform="translate(19.05 19.07)" fill="#fff"/>
        <g id="_497789" data-name=" 497789">
          <g id="Group_1" data-name="Group 1">
            <path id="Path_1" data-name="Path 1" d="M125.39,106.3,96,52.25a12.19,12.19,0,0,0-21,0L45.61,106.3A12.19,12.19,0,0,0,56.1,124.72h58.8a12.19,12.19,0,0,0,10.49-18.42ZM85.5,115a4.88,4.88,0,1,1,4.88-4.87A4.88,4.88,0,0,1,85.5,115Zm4.88-19.5a4.88,4.88,0,0,1-9.76,0V71.07a4.88,4.88,0,0,1,9.76,0Z" fill="#4198c9"/>
          </g>
        </g>
      </g>
    </g>
  </g>
</svg>
